<svg width="38" height="39" viewBox="0 0 38 39" fill="none" xmlns="http://www.w3.org/2000/svg">
<rect y="0.5" width="38" height="38" rx="10" fill="#1F2635"/>
<path d="M19 24.5C21.7614 24.5 24 22.2614 24 19.5C24 16.7386 21.7614 14.5 19 14.5C16.2386 14.5 14 16.7386 14 19.5C14 22.2614 16.2386 24.5 19 24.5Z" stroke="white" stroke-width="2" stroke-miterlimit="10"/>
<path d="M24.5 8H13.5C10.1863 8 7.5 10.6863 7.5 14V25C7.5 28.3137 10.1863 31 13.5 31H24.5C27.8137 31 30.5 28.3137 30.5 25V14C30.5 10.6863 27.8137 8 24.5 8Z" stroke="white" stroke-width="2" stroke-linecap="round" stroke-linejoin="round"/>
<path d="M26 13C26 13.2761 25.7761 13.5 25.5 13.5C25.2239 13.5 25 13.2761 25 13C25 12.7239 25.2239 12.5 25.5 12.5C25.7761 12.5 26 12.7239 26 13Z" fill="white" stroke="white" stroke-width="2"/>
</svg>
