<svg width="38" height="39" viewBox="0 0 38 39" fill="none" xmlns="http://www.w3.org/2000/svg">
<rect y="0.5" width="38" height="38" rx="10" fill="#1F2635"/>
<path d="M8.9997 28.5C8.9997 28.5 13.9997 27.5 14.9997 24.5C14.9997 24.5 6.9997 21.5 8.9997 10.5C8.9997 10.5 12.9997 15.5 18.9997 16.5V14.5004C18.9998 13.3516 19.3954 12.2378 20.1201 11.3464C20.8447 10.455 21.8542 9.84023 22.9788 9.60551C24.1033 9.37078 25.2744 9.5304 26.2951 10.0575C27.3159 10.5846 28.124 11.4471 28.5836 12.5L32.9997 12.5L28.9997 16.5C28.9997 23.5 23.9997 30.5 14.9997 30.5C10.9997 30.5 8.9997 28.5 8.9997 28.5Z" stroke="white" stroke-width="2" stroke-linecap="round" stroke-linejoin="round"/>
</svg>
