<svg width="39" height="39" viewBox="0 0 39 39" fill="none" xmlns="http://www.w3.org/2000/svg">
<path d="M36.9376 21.8705L36.4732 23.7333C34.1358 33.1088 24.6401 38.8143 15.2638 36.4764L15.2638 36.4764C5.89107 34.1391 0.18557 24.643 2.52368 15.2685L36.9376 21.8705ZM36.9376 21.8705H36.8329M36.9376 21.8705H36.8329M36.8329 21.8705C38.0383 13.1309 32.4842 4.70582 23.7295 2.52334C14.3557 0.185974 4.8602 5.89204 2.52377 15.2681L36.8329 21.8705Z" fill="#F7931A" stroke="#1F2635" stroke-width="3"/>
<path d="M26.5759 17.197C26.8943 15.0678 25.2733 13.9232 23.0566 13.1597L23.7757 10.2754L22.02 9.83793L21.3199 12.6462C20.8584 12.5311 20.3843 12.4227 19.9132 12.3151L20.6183 9.48827L18.8637 9.05078L18.1442 11.9341C17.7622 11.8471 17.3871 11.7612 17.0231 11.6706L17.0251 11.6616L14.6039 11.0569L14.1369 12.9322C14.1369 12.9322 15.4395 13.2308 15.4121 13.2491C16.123 13.4266 16.2516 13.8972 16.2303 14.2703L15.4111 17.5561C15.4601 17.5686 15.5236 17.5866 15.5936 17.6147C15.5351 17.6002 15.4727 17.5843 15.4081 17.5688L14.2599 22.1718C14.173 22.3878 13.9525 22.712 13.4554 22.5889C13.473 22.6144 12.1793 22.2704 12.1793 22.2704L11.3076 24.2802L13.5924 24.8498C14.0175 24.9563 14.434 25.0679 14.8442 25.1727L14.1177 28.0901L15.8714 28.5276L16.5909 25.6412C17.07 25.7713 17.5349 25.8912 17.9901 26.0043L17.273 28.8771L19.0288 29.3146L19.7553 26.4027C22.7492 26.9693 25.0003 26.7409 25.9479 24.0329C26.7114 21.8526 25.9099 20.5951 24.3348 19.775C25.482 19.5104 26.3461 18.7559 26.5765 17.1972L26.576 17.1969L26.5759 17.197ZM22.5644 22.8221C22.0218 25.0023 18.351 23.8238 17.1608 23.5282L18.125 19.6633C19.315 19.9604 23.1315 20.5483 22.5645 22.8221H22.5644ZM23.1074 17.1654C22.6125 19.1486 19.5572 18.141 18.566 17.894L19.4402 14.3887C20.4313 14.6357 23.623 15.0969 23.1076 17.1654H23.1074Z" fill="white"/>
</svg>
