<svg width="35" height="47" viewBox="0 0 35 47" fill="none" xmlns="http://www.w3.org/2000/svg">
<path d="M29.3967 24.8867C31.9548 24.1008 33.8463 22.209 34.1964 18.5243C34.6978 13.4821 31.075 11.0674 25.947 9.6091L27.2629 2.73444L23.1982 1.95829L21.9218 8.62642C20.8652 8.42465 19.7839 8.24876 18.6949 8.06122L19.9807 1.34392L15.916 0.567769L14.602 7.4326C13.098 7.1964 11.3712 6.83608 6.45352 5.87667L5.59881 10.3418C8.81808 10.8953 10.5349 10.9988 10.5185 13.1977L6.92086 31.9924C6.35143 33.6269 5.09248 33.1419 2.20041 32.5285L0.427276 37.3585C7.83323 38.7726 8.57008 38.9439 8.57008 38.9439L7.44428 44.8252L11.509 45.6014L12.6178 39.8086C13.7164 40.0489 14.8016 40.2562 15.8297 40.4525L14.7265 46.2158L18.7912 46.9919L19.917 41.1106C26.7871 42.0248 31.6762 41.1234 33.5524 34.6208C35.0431 29.4106 33.0694 26.5769 29.3967 24.8867ZM17.8393 12.9951C20.1334 13.4331 27.4426 14.0642 26.4975 19.0014C25.5957 23.7123 18.5313 21.8027 16.2372 21.3647L17.8393 12.9951ZM13.6749 34.7501L15.4371 25.5445C18.1786 26.068 26.7252 26.8844 25.6935 32.274C24.6976 37.4767 16.4165 35.2736 13.6749 34.7501Z" fill="#F3F7FD"/>
</svg>
