<svg width="168" height="85" viewBox="0 0 168 85" fill="none" xmlns="http://www.w3.org/2000/svg">
<rect x="0.5" y="0.5" width="167" height="84" rx="14" fill="#FFFCFC"/>
<g clip-path="url(#clip0)">
<path d="M25.5974 30.4312H38.8919C38.8838 30.6061 38.823 30.7747 38.7175 30.9149C38.2674 31.683 37.8624 32.4825 37.4202 33.2506C36.7946 34.3535 36.2096 35.4766 35.5739 36.575C35.1711 37.3655 34.7165 38.1314 34.2867 38.9085C31.7034 38.9085 29.1201 38.9085 26.5369 38.9085C26.4018 38.9085 26.2679 38.9152 26.1329 38.923C26.0204 39.2187 25.8336 39.4773 25.6829 39.755C25.486 40.073 25.3262 40.4123 25.1316 40.7303C24.9257 41.158 24.641 41.5409 24.434 41.9675C24.0064 42.6898 23.607 43.4232 23.1885 44.1532C22.7519 44.8997 22.3251 45.6566 21.9081 46.424C21.7316 46.696 21.569 46.9766 21.4209 47.2649C20.5467 48.7787 19.7006 50.306 18.8252 51.8188C18.751 51.9814 18.6532 52.1323 18.5349 52.2667C17.0385 52.2566 15.5421 52.2667 14.0457 52.2667C13.8614 52.2701 13.6782 52.2957 13.5 52.3428C13.5 51.9307 13.7768 51.6004 13.9636 51.2544C14.1886 50.7898 14.489 50.3587 14.7151 49.8929C16.5086 46.6994 18.2829 43.4948 20.0707 40.2992C20.4758 39.605 20.8235 38.8962 21.2308 38.2154C21.7393 37.3196 22.213 36.4037 22.7429 35.518C22.9117 35.1474 23.139 34.8081 23.3246 34.4464C23.9839 33.2786 24.6309 32.104 25.288 30.9361C25.3659 30.7538 25.4701 30.5836 25.5974 30.4312Z" fill="#EB4A60"/>
<path d="M41.0025 35.1328C41.8879 33.5932 42.743 32.0368 43.6409 30.5039H48.4429C48.5129 30.5074 48.5823 30.5183 48.65 30.5364C48.4902 30.7771 48.3563 31.0324 48.2157 31.2832C47.0575 33.3517 45.9028 35.4213 44.7514 37.492C44.2676 38.3352 43.8175 39.1973 43.327 40.036L43.2786 40.0528L43.2696 40.1581C41.0118 44.189 38.7616 48.223 36.5188 52.2599C32.1106 52.2644 27.702 52.2644 23.293 52.2599C23.5439 51.7381 23.8409 51.2398 24.1199 50.7326C25.3756 48.435 26.6638 46.1575 27.9015 43.8598C30.61 43.8553 33.3186 43.8553 36.0272 43.8598C37.7002 40.9598 39.3373 38.0373 40.998 35.1328H41.0025Z" fill="#595FB5"/>
<path d="M90.561 30.4443V52.5251H94.4056V36.998L101.419 47.2243L108.375 36.755V52.5251H112.332V30.4443H108.076L101.447 40.6371L94.7431 30.4443H90.561Z" fill="#595FB5"/>
<path d="M72.5781 36.1392H75.0905V52.7109H72.5781V36.1392Z" fill="#595FB5"/>
<path d="M72.3618 30H75.3063V32.7802H72.3618V30Z" fill="#595FB5"/>
<path d="M79.8914 31.3906H82.5163V36.1393H87.6919V38.4538H82.5163V48.2983C82.5118 48.6776 82.6002 49.0523 82.7739 49.39C83.2184 50.2298 84.4256 51.2263 87.6919 50.0618V52.2072C87.6919 52.2072 84.7103 53.8868 82.01 52.3572C82.01 52.3572 80.6688 51.7907 80.1051 49.8782C79.9587 49.3659 79.8867 48.8354 79.8914 48.3028V38.4168L77.6782 38.4538V36.1393H79.9094L79.8914 31.3906Z" fill="#595FB5"/>
<path d="M116.383 30.4443V52.674H133.072V49.0909H120.452V43.1934H131.572V39.6663H120.433V34.0498H132.941V30.4443H116.383Z" fill="#595FB5"/>
<path d="M134.638 30.4443H139.391L144.848 38.2487L150.262 30.4443H155.016L147.253 41.2854L155.5 52.6549H150.493L144.867 44.3512L138.969 52.674H134.216L142.345 41.3839L134.638 30.4443Z" fill="#595FB5"/>
<path d="M64.8891 41.1413C64.8891 41.1413 68.5649 39.7607 68.3399 35.7857C68.3399 35.7857 68.3095 31.963 63.9845 30.7828C63.2654 30.5911 62.5237 30.4962 61.7793 30.5006H51.4067L51.4349 52.5814H62.6018C62.6018 52.5814 69.1365 52.4414 69.5967 46.6469C69.5967 46.6469 70.0647 42.5969 64.8891 41.1413ZM54.0879 32.7804H60.7082C65.9017 32.7625 65.7521 36.4015 65.7521 36.4015C65.8297 40.5534 61.0637 40.4694 61.0637 40.4694H54.0879V32.7804ZM62.1888 50.2479H54.0879V42.5599H61.8333C67.0269 42.5409 66.8772 46.18 66.8772 46.18C66.9549 50.3319 62.1888 50.2479 62.1888 50.2479Z" fill="#595FB5"/>
</g>
<defs>
<clipPath id="clip0">
<rect width="142" height="23" fill="white" transform="translate(13.5 30)"/>
</clipPath>
</defs>
</svg>
