<svg width="50" height="45" viewBox="0 0 50 45" fill="none" xmlns="http://www.w3.org/2000/svg">
<path d="M24.243 0.439701C25.3137 -0.1022 26.6207 1.15493 26.0518 2.19319C25.7214 3.03954 24.4687 3.2646 23.8289 2.61946C23.151 2.00032 23.372 0.776572 24.243 0.439701ZM12.7269 1.64461C13.3773 1.38475 14.2006 1.96313 14.1343 2.65117C14.2033 3.3981 13.2623 3.94787 12.5994 3.59288C11.721 3.26269 11.8215 1.87873 12.7269 1.64461ZM36.3133 3.61386C35.2969 3.49466 35.136 1.94358 36.1146 1.63126C36.8736 1.27198 37.5699 1.94572 37.6809 2.64402C37.5218 3.24028 37.0074 3.78623 36.3133 3.61386ZM15.3472 6.40204C16.4346 5.7345 17.9862 6.72866 17.8189 7.95456C17.7624 9.19237 16.0686 9.9095 15.1129 9.07269C14.1888 8.4154 14.3288 6.90747 15.3472 6.40204ZM31.9468 7.11035C32.4319 5.89686 34.3976 5.86014 34.9498 7.04145C35.4956 7.96075 34.8243 9.09915 33.8519 9.41171C32.5638 9.64511 31.3403 8.29357 31.9468 7.11035ZM22.8562 9.3428C22.8456 8.29977 23.8245 7.52256 24.8458 7.45152C25.5232 7.58336 26.2616 7.86348 26.5521 8.52697C27.0937 9.44222 26.6128 10.7024 25.6342 11.1225C25.1867 11.3659 24.6576 11.2746 24.1703 11.2463C23.4253 10.8913 22.798 10.1951 22.8562 9.3428ZM5.72999 10.8627C6.7233 10.27 8.06343 11.3516 7.68738 12.399C7.48032 13.3049 6.22566 13.6735 5.50844 13.0951C4.74282 12.5532 4.86416 11.2503 5.72999 10.8627ZM42.5062 10.8607C43.349 10.2256 44.7397 10.9542 44.6392 11.987C44.6957 12.9287 43.4934 13.6389 42.6568 13.154C41.7355 12.752 41.6414 11.3762 42.5062 10.8607ZM27.6724 12.7358C29.0632 12.2509 30.715 12.8312 31.5076 14.0347C32.5532 15.5059 31.9969 17.7464 30.3743 18.5906C28.693 19.5891 26.238 18.7428 25.617 16.9204C24.9121 15.2889 25.9391 13.2472 27.6724 12.7358ZM19.5128 12.8963C21.0541 12.1901 23.1284 12.7826 23.8729 14.3129C24.749 15.8025 24.0716 17.8766 22.5052 18.6457C20.9369 19.5102 18.7243 18.8548 17.9653 17.2556C17.1142 15.709 17.87 13.6084 19.5128 12.8963ZM11.3425 15.6074C11.4597 14.6436 12.3965 14.0163 13.3417 13.9515C14.36 14.0707 15.1735 14.8383 15.2843 15.8387C15.2175 16.8291 14.4291 17.797 13.3478 17.791C12.1582 17.8904 11.1153 16.7418 11.3425 15.6074ZM35.4747 14.161C36.696 13.4711 38.3918 14.4755 38.3375 15.8373C38.4212 17.2801 36.5444 18.2969 35.3283 17.4506C34.0651 16.7458 34.1636 14.7611 35.4747 14.161ZM16.1922 19.2463C17.6205 18.8648 19.2536 19.5183 19.9541 20.7926C20.7215 22.0752 20.4078 23.8571 19.216 24.7978C17.6875 26.1777 14.8685 25.6237 14.055 23.7405C13.1201 22.0142 14.2556 19.7007 16.1922 19.2463ZM31.6688 19.2391C33.0573 18.8536 34.6885 19.3731 35.4349 20.6009C36.4218 22.0051 35.9507 24.0995 34.4814 25.0048C32.9423 26.0559 30.5583 25.504 29.7114 23.8604C28.6847 22.1603 29.7178 19.7577 31.6688 19.2391ZM7.00552 20.8412C8.2393 20.3882 9.60694 21.7097 9.10709 22.897C8.80178 23.9787 7.23125 24.3785 6.41995 23.581C5.47061 22.8322 5.8221 21.1659 7.00552 20.8412ZM40.4474 22.5642C40.4118 21.5719 41.1597 20.6932 42.208 20.6383C43.053 20.7683 43.8746 21.4298 43.8078 22.3227C43.8852 23.5019 42.4212 24.3034 41.3862 23.7493C40.9011 23.51 40.6522 23.0269 40.4474 22.5642ZM0.93907 21.4236C1.68135 21.1092 2.5995 21.7336 2.43002 22.5337C2.39022 23.4396 1.01227 23.7879 0.506033 23.031C0.0587493 22.5053 0.326481 21.6947 0.93907 21.4236ZM47.7412 21.4055C48.2639 21.0443 49.1025 21.304 49.3096 21.8967C49.6608 22.5439 49.0168 23.4308 48.2661 23.3214C47.2124 23.4146 46.8715 21.8559 47.7412 21.4055ZM20.2238 25.7543C22.1771 25.2613 24.2767 26.8422 24.2889 28.7943C24.4164 30.7669 22.3485 32.5161 20.3491 32.0605C18.8036 31.8189 17.591 30.374 17.6411 28.8582C17.6369 27.4084 18.7641 26.0609 20.2238 25.7543ZM27.9591 25.7503C29.9415 25.2124 32.1038 26.8217 32.0723 28.8188C32.1769 30.7549 30.1736 32.4452 28.216 32.0612C26.3738 31.8299 25.0145 29.8654 25.5289 28.1303C25.7885 26.974 26.7838 26.0337 27.9591 25.7503ZM13.045 26.9519C14.4168 26.7246 15.7029 28.2102 15.1465 29.4744C14.7408 30.8217 12.7207 31.1872 11.8276 30.0867C10.78 29.0298 11.5621 27.0978 13.045 26.9519ZM35.7297 27.0112C36.9529 26.5139 38.4544 27.541 38.3603 28.8295C38.4094 30.2481 36.5557 31.2263 35.3595 30.3983C34.0047 29.6549 34.2513 27.4673 35.7297 27.0112ZM42.0702 33.1841C41.5913 32.3175 42.4613 31.1688 43.4526 31.3293C43.9461 31.3212 44.2912 31.6986 44.6071 32.0152C44.6719 32.5287 44.7807 33.1414 44.3415 33.5372C43.7452 34.2698 42.3942 34.0607 42.0702 33.1841ZM5.72581 31.5705C6.65231 30.9719 7.98557 31.8647 7.77728 32.9161C7.6665 33.8459 6.45974 34.3773 5.6649 33.8497C4.81184 33.3707 4.84328 32.007 5.72581 31.5705ZM24.0298 33.5169C25.2427 32.9974 26.7879 34.0223 26.673 35.319C26.7629 36.7518 24.8517 37.7441 23.6658 36.8837C22.3485 36.1449 22.5681 33.9713 24.0298 33.5169ZM15.5521 35.4366C16.5852 34.909 17.9715 35.8201 17.8774 36.9423C17.9088 37.8638 16.9823 38.6491 16.0455 38.513C15.2696 38.4967 14.7636 37.8216 14.5148 37.1796C14.5275 36.4798 14.8243 35.7005 15.5521 35.4366ZM32.7247 35.4528C33.787 34.8155 35.2969 35.7307 35.1964 36.9309C35.2237 38.1852 33.5173 38.9886 32.5282 38.1646C31.5705 37.5188 31.6874 35.9663 32.7247 35.4528ZM35.711 42.6186C35.2384 41.9246 35.7948 41.0885 36.5621 40.9302C37.1791 41.052 37.8315 41.5024 37.7018 42.1966C37.6119 43.1362 36.1961 43.4244 35.711 42.6186ZM12.0055 42.0159C12.1936 41.4659 12.6495 40.9192 13.3166 41.0623C14.289 41.1292 14.5777 42.5518 13.7266 42.9903C12.9612 43.4912 12.0733 42.8053 12.0055 42.0159ZM23.442 42.647C23.6282 41.8333 24.7134 41.4375 25.4286 41.8697C25.9012 42.0667 26.0393 42.58 26.1606 43.0163C26.0958 43.2435 26.0378 43.4709 25.9808 43.6981C25.688 44.035 25.3117 44.3718 24.8244 44.3597C23.9188 44.4627 23.1018 43.469 23.442 42.647Z" fill="#F3F7FD"/>
</svg>
