<svg width="141" height="31" viewBox="0 0 141 31" fill="none" xmlns="http://www.w3.org/2000/svg">
<path fill-rule="evenodd" clip-rule="evenodd" d="M39.4012 29.912H43.8004V10.5444H39.4012V29.912ZM107.381 24.6828C107.381 24.6828 107.409 24.6828 107.381 24.6828V24.6828ZM41.753 2.05043C40.2312 1.93966 38.9308 3.10178 38.8201 4.59586C38.8201 6.08994 40.0376 7.33493 41.5593 7.36259C43.0811 7.33493 44.2984 6.08994 44.2984 4.59586C44.2431 3.2401 43.1364 2.13342 41.753 2.05043ZM26.4802 10.1018C20.6423 10.1018 16.3814 14.2243 16.3814 20.2283C16.3814 26.2322 20.6423 30.3271 26.4802 30.3271C32.3735 30.3271 36.6343 26.2046 36.6343 20.2283C36.6067 14.2243 32.3735 10.1018 26.4802 10.1018ZM26.4802 26.6472C23.2154 26.6472 20.8083 24.1571 20.8083 20.2559C20.8083 16.3271 23.1877 13.837 26.4802 13.837C29.8281 13.837 32.2075 16.3271 32.2075 20.2559C32.2075 24.1294 29.8281 26.6472 26.4802 26.6472ZM140.5 21.2243V19.0385C140.5 13.754 137.816 10.1294 132.089 10.1294C126.694 10.1294 122.627 14.2519 122.627 20.3942C122.627 26.5089 126.777 30.3547 132.892 30.3547C135.41 30.3547 138.037 29.8013 139.808 28.5564V24.7658C137.871 26.0385 135.907 26.6472 133.223 26.6472C130.152 26.6472 127.164 24.7658 126.888 21.3073V21.2243H140.5ZM131.951 13.7263C134.772 13.7263 136.294 15.3864 136.377 18.4022H126.998C127.579 15.497 129.433 13.7263 131.951 13.7263ZM11.4012 26.5365C7.583 26.5365 4.92688 24.0741 4.92688 20.2283C4.92688 16.1611 7.66601 13.9476 11.2075 13.9476C12.2589 13.9476 13.2549 14.1136 14.251 14.501L16.1047 11.4022C14.4723 10.5444 12.8676 10.1018 10.8202 10.1018C5.03755 10.1018 0.5 13.9753 0.5 20.2283C0.5 26.4259 4.84387 30.3547 10.8202 30.3271C12.7846 30.3547 14.6936 29.8843 16.4367 28.9713C16.409 28.9713 14.4447 25.9832 14.4447 25.9278C13.504 26.3429 12.4802 26.5365 11.4012 26.5365ZM114.436 18.3468C112.168 17.7382 111.338 17.0741 111.338 15.8013C111.338 14.5287 112.362 13.6156 114.243 13.6156C116.235 13.6432 118.172 14.3349 119.749 15.58V11.5959C118.117 10.5721 116.346 10.1018 114.133 10.1018C110.148 10.1018 107.132 12.0385 107.132 15.9673C107.132 19.3429 108.848 20.9476 112.942 21.8883C115.46 22.5524 116.623 23.1058 116.623 24.6828C116.623 26.2046 115.349 26.8685 113.386 26.8685C111.2 26.7855 109.125 26.0108 107.409 24.6828V28.7777C109.235 29.8567 111.338 30.3824 113.469 30.3547C117.701 30.3547 120.855 28.5287 120.855 24.4337C120.855 20.9476 118.919 19.2876 114.436 18.3468ZM96.8676 10.1018C94.6542 10.0741 92.4407 10.6275 90.504 11.6788V15.4417C92.1364 14.5287 93.9071 13.8646 96.1759 13.8646C98.334 13.8646 99.9664 14.833 99.9664 16.9358V18.5405H97.8083C92.1364 18.5405 88.7332 20.4772 88.7332 24.4061C88.7332 28.7777 92.4684 30.2994 97.5316 30.2994C99.7451 30.2994 102.401 29.995 104.255 29.5247V16.7144C104.2 11.8725 101.156 10.1018 96.8676 10.1018ZM99.9111 21.4456V26.8685C99.1087 27.0069 98.1957 27.0623 97.5316 27.0623C94.8755 27.0623 93.0218 26.2876 93.0218 24.2678C93.0218 22.3034 95.0139 21.4179 98.085 21.4179L99.9111 21.4456ZM56.6107 10.1018C53.5395 10.1294 50.496 10.6828 47.6186 11.7618V29.8843H51.9901V14.6117C53.1522 14.2519 54.7016 14.0583 56.251 14.0583C58.6858 14.0583 60.4565 15.0543 60.4565 17.8488V29.912H64.7728V17.4337C64.8004 11.9832 61.6186 10.1018 56.6107 10.1018ZM77.334 10.1018C75.6186 10.1018 73.7925 10.5721 72.8794 11.0701V0.168945H68.4802V29.082C70.4723 29.7737 72.9624 30.3547 75.7846 30.3547C83.0336 30.3547 87.2392 26.1492 87.2392 19.8962C87.2392 13.6709 83.0059 10.1018 77.334 10.1018ZM75.9229 26.6472C74.8163 26.6472 73.7095 26.5089 72.8794 26.2322V14.916C73.7648 14.4456 75.0929 14.003 76.8359 14.003C80.1561 14.003 82.8676 16.2164 82.8676 20.0069C82.8123 24.4614 79.9348 26.6472 75.9229 26.6472Z" fill="#0667D0"/>
</svg>
