<svg width="64" height="70" viewBox="0 0 64 70" fill="none" xmlns="http://www.w3.org/2000/svg">
<path fill-rule="evenodd" clip-rule="evenodd" d="M31.9998 7.24992C26.8912 7.24992 22.7498 11.3913 22.7498 16.4999C22.7498 21.6086 26.8912 25.7499 31.9998 25.7499C37.1085 25.7499 41.2498 21.6086 41.2498 16.4999C41.2498 11.3913 37.1085 7.24992 31.9998 7.24992ZM16.5832 16.4999C16.5832 7.98553 23.4854 1.08325 31.9998 1.08325C40.5142 1.08325 47.4165 7.98553 47.4165 16.4999C47.4165 25.0143 40.5142 31.9166 31.9998 31.9166C23.4854 31.9166 16.5832 25.0143 16.5832 16.4999ZM1.1665 65.8332C1.1665 48.8045 14.9711 34.9999 31.9998 34.9999C49.0286 34.9999 62.8332 48.8045 62.8332 65.8332C62.8332 67.5361 61.4527 68.9166 59.7498 68.9166C58.047 68.9166 56.6665 67.5361 56.6665 65.8332C56.6665 53.6732 47.8673 43.5682 36.2889 41.5382L41.1135 57.2181C41.4136 58.1935 41.2117 59.2542 40.5742 60.0511L34.4075 67.7594C33.8224 68.4908 32.9365 68.9166 31.9998 68.9166C31.0632 68.9166 30.1773 68.4908 29.5922 67.7594L23.4255 60.0511C22.788 59.2542 22.5861 58.1935 22.8862 57.2181L27.7108 41.5382C16.1323 43.5682 7.33317 53.6732 7.33317 65.8332C7.33317 67.5361 5.95272 68.9166 4.24984 68.9166C2.54696 68.9166 1.1665 67.5361 1.1665 65.8332ZM31.9998 48.5677L29.2599 57.4726L31.9998 60.8975L34.7398 57.4726L31.9998 48.5677Z" fill="#4DB64B" stroke="#1E2945" stroke-width="2" stroke-linecap="round" stroke-linejoin="round"/>
</svg>
