<svg width="84" height="58" viewBox="0 0 84 58" fill="none" xmlns="http://www.w3.org/2000/svg">
<path d="M28.6211 38.7597L24.0605 41.0443C21.2477 42.4508 17.9027 42.1563 15.3886 40.3265L14.868 39.9152L2.71608 29.5569C1.22565 28.2864 1.52046 25.947 3.17657 25.0518L3.54368 24.8855L10.1952 22.3366L10.1952 22.3365C11.7432 21.7433 13.4272 21.6247 15.0341 21.987L15.7602 22.1853L21.8879 24.1422C21.8879 24.1422 21.888 24.1422 21.888 24.1422C22.428 24.3147 23.0027 24.3224 23.5406 24.1712L23.5877 24.158L23.6334 24.1402L23.9744 24.0071L24.0214 23.9888L24.0662 23.9659L24.698 23.6429L25.6198 23.1716L25.1168 22.2667L17.0961 7.83552C17.0961 7.83546 17.096 7.83541 17.096 7.83536C15.9827 5.83119 17.665 3.47085 19.8477 3.77023L20.1912 3.83815L48.9941 11.0364L49.3561 11.1269L49.689 10.958L65.8054 2.78177L65.8055 2.78171C66.7786 2.2879 67.8368 1.98996 68.9202 1.90229L69.6153 1.875H79.5C81.4253 1.875 82.7206 3.78729 82.0961 5.53583L81.9473 5.87955L79.0482 11.6778C78.342 13.0902 77.2534 14.2696 75.9127 15.0859L75.2848 15.4322L59.3043 23.4218L59.0177 23.5651L58.8677 23.8484L42.556 54.6617C41.5744 56.5158 39.0026 56.6041 37.8686 54.9497L37.6518 54.5767L29.9634 39.2064L29.5157 38.3115L28.6211 38.7597ZM74.3268 8.82245L75.051 7.375H73.4325H69.5957C69.2943 7.375 68.9957 7.42242 68.7107 7.51461L68.6734 7.52668L68.6371 7.54163L68.3659 7.65353L68.3296 7.66849L68.2946 7.68624L26.553 28.8716L26.553 28.8716C24.7915 29.7657 22.7776 30.0051 20.8675 29.5613L20.1959 29.3755L14.067 27.4182L14.067 27.4182C13.6002 27.2692 13.1059 27.2427 12.6306 27.3373L12.589 27.3456L12.5483 27.3574L12.2436 27.4454L12.2051 27.4566L12.1676 27.4707L11.3802 27.7683L9.7968 28.3669L11.0851 29.4648L18.45 35.7415C18.45 35.7415 18.4501 35.7416 18.4501 35.7416C19.203 36.3833 20.2218 36.5856 21.1476 36.3054L21.1883 36.293L21.2278 36.2773L21.5235 36.1596L21.5629 36.1439L21.6008 36.1249L37.0202 28.4153C37.41 28.2204 37.8211 28.1274 38.2262 28.1243C39.2467 28.1165 40.2267 28.6764 40.7111 29.6453C41.3372 30.8977 40.9178 32.4009 39.7837 33.159L39.4549 33.3471L35.331 35.4066L34.4358 35.8536L34.8834 36.7485L39.3244 45.6285L40.1934 47.3662L41.1025 45.6492L54.56 20.2325L54.7047 19.9858C54.7289 19.949 54.7538 19.913 54.7795 19.8777L54.7795 19.8778L54.7859 19.8687C54.8095 19.8356 54.8372 19.7994 54.8688 19.7606C54.9041 19.7182 54.9381 19.6791 54.9712 19.6429L54.9756 19.638C55.0071 19.603 55.0415 19.5674 55.0788 19.531C55.1141 19.4971 55.1485 19.4653 55.1824 19.4355L55.1846 19.4335C55.2332 19.3905 55.2867 19.3468 55.3434 19.3042C55.3657 19.2875 55.3863 19.2725 55.4062 19.2584L55.4068 19.258C55.4309 19.2408 55.4564 19.2234 55.4826 19.2061L55.598 19.134C55.6258 19.1175 55.6538 19.1016 55.6821 19.0862L55.7772 19.0368L55.784 19.0333L72.8432 10.5038C73.2605 10.2952 73.6185 9.98931 73.8889 9.61464L73.9125 9.58189L73.9334 9.54735L74.0899 9.28876L74.1107 9.25436L74.1287 9.2184L74.3268 8.82245ZM27.2199 11.2636L24.9854 10.7054L26.1032 12.7191L30.0585 19.8441L30.5262 20.6868L31.3856 20.2504L39.4856 16.1366L41.8735 14.9239L39.2751 14.2748L27.2199 11.2636Z" fill="#4DB64B" stroke="#1E2945" stroke-width="2"/>
</svg>
