<svg width="141" height="45" viewBox="0 0 141 45" fill="none" xmlns="http://www.w3.org/2000/svg">
<path d="M13.5916 0.459954C13.1424 0.436882 12.8452 0.833027 12.8452 0.833027C12.8452 0.833027 7.99949 6.66655 5.14667 10.1822C2.29354 13.6978 1.26311 16.1457 1.26311 16.1457C-0.743174 21.2074 3.32458 24.5206 3.32458 24.5206C7.55811 28.0178 12.1595 27.9993 12.1595 27.9993C12.0859 24.7967 12.2146 22.9008 12.2146 22.9008C12.5276 19.4957 16.1533 16.1274 16.1533 16.1274C14.9193 16.2226 12.4552 16.2172 11.0956 14.9877C9.73621 13.7582 10.5958 10.8393 10.5958 10.8393L14.1147 1.51276C14.1147 1.51276 14.5545 0.872787 13.9248 0.552915C13.8066 0.492995 13.6949 0.46533 13.5913 0.459954H13.5916ZM127.427 0.459954C127.324 0.46253 127.212 0.492995 127.093 0.552915C126.463 0.872787 126.903 1.51276 126.903 1.51276L130.429 10.8393C130.429 10.8393 131.29 13.7582 129.928 14.9877C128.566 16.2172 126.097 16.2226 124.86 16.1274C124.86 16.1274 128.493 19.4957 128.807 22.9008C128.807 22.9008 128.936 24.7967 128.862 27.9993C128.862 27.9993 133.473 28.0178 137.715 24.5206C137.715 24.5206 141.791 21.2074 139.781 16.1457C139.781 16.1457 138.748 13.6978 135.89 10.1822C133.03 6.66655 128.175 0.833027 128.175 0.833027C128.175 0.833027 127.877 0.436882 127.427 0.459954ZM26.0625 15.479C26.0625 15.479 16.1622 15.4416 14.892 24.1838V35.6532C14.892 35.6532 15.0415 43.7975 26.5482 44.3952C26.5482 44.3952 32.6001 45.0302 36.9711 39.2396L32.04 35.9894C32.04 35.9894 29.6864 39.0154 26.6603 38.8286C23.6343 38.6418 20.7577 37.521 20.7577 34.4203V31.88H36.2613C36.2613 31.88 37.3449 32.104 37.3449 30.1613V24.4453C37.3449 24.4453 37.4944 15.8527 26.0625 15.479ZM114.023 15.5567C114.023 15.5567 104.092 15.7441 102.686 24.4579V35.7482C102.686 35.7482 103.061 43.1501 113.836 44.1339C113.836 44.1339 124.611 44.79 125.97 35.4673V23.6148C125.97 23.6148 124.987 15.9314 114.023 15.5567ZM73.5715 15.6314C73.5715 15.6314 63.6397 15.8189 62.2343 24.5326V35.8227C62.2343 35.8227 62.609 43.2249 73.3842 44.2087C73.3842 44.2087 84.1593 44.8645 85.5178 35.5417V23.6892C85.5178 23.6892 84.5339 16.0061 73.5715 15.6314ZM100.45 15.7209C90.2244 15.85 89.0147 23.9247 89.0147 23.9247V44.0259H94.7923V24.8195C94.7923 24.8195 95.815 21.7253 99.4314 21.5015C99.4314 21.5015 100.998 17.0647 103.868 15.9463C102.823 15.8035 101.85 15.7318 100.944 15.7209C100.778 15.7201 100.613 15.7201 100.45 15.7209ZM51.3315 16.0609C50.9386 16.0594 50.5419 16.0616 50.1429 16.0756C43.7563 16.2908 41.2806 16.7934 37.5493 17.9056C37.5493 17.9056 39.953 20.2017 40.0605 22.8568C40.0605 22.8568 44.3303 21.6729 46.9854 21.7805V44.0258H52.7977V21.924C52.7977 21.924 57.2111 21.8524 59.5433 22.8929C59.5433 22.8929 59.292 20.6683 62.2702 17.9056C62.2702 17.9056 57.2246 16.108 51.3315 16.0608V16.0609ZM26.7282 21.1546C29.3478 21.1773 31.5926 22.8369 31.6288 24.7068V27.0606H20.7577V24.2958C20.7577 24.2958 22.0298 21.2998 26.4736 21.1578C26.5587 21.1567 26.6437 21.156 26.7282 21.1563V21.1546ZM114.117 21.3192C118.896 21.2724 120.068 23.2867 120.068 24.692V34.3898C120.068 34.3898 119.411 38.2313 114.492 38.1375C109.573 38.0439 108.542 35.5608 108.542 33.6401V25.0199C108.542 25.0199 109.339 21.366 114.117 21.3192ZM73.6653 21.3935C78.4438 21.3467 79.615 23.3614 79.615 24.7668V34.4642C79.615 34.4642 78.9589 38.3056 74.04 38.2119C69.1208 38.1183 68.0903 35.6355 68.0903 33.7148V25.0946C68.0903 25.0946 68.8869 21.4404 73.6653 21.3935Z" fill="#5C9F04"/>
</svg>
