<svg width="169" height="57" viewBox="0 0 169 57" fill="none" xmlns="http://www.w3.org/2000/svg">
<path d="M56.7745 37.4518C55.2009 39.7422 53.1009 40.7754 50.7377 41.201C47.5093 41.7834 44.4377 41.2822 41.7749 39.2102C40.2349 38.0118 39.3529 36.343 39.2633 34.4474C39.1177 31.3646 38.9945 28.251 39.2549 25.185C39.5601 21.587 42.0017 19.5766 45.3225 18.6694C48.9233 17.6866 52.2889 18.1598 55.1533 20.7694C56.5281 22.021 57.1777 23.6254 57.2393 25.4566C57.2869 26.8734 57.2169 28.2902 57.2617 29.707C57.2981 30.8354 56.7717 31.2218 55.7021 31.2134C52.3113 31.1882 48.9177 31.1966 45.5269 31.2106C43.7041 31.2162 43.5949 31.3422 43.6173 33.0838C43.6565 36.0266 46.5797 38.1434 49.5981 37.309C50.5613 37.043 51.4881 36.511 52.3113 35.9286C52.8881 35.5198 53.2717 35.377 53.8933 35.7858C54.7753 36.3654 55.7217 36.8498 56.7745 37.4518ZM48.1505 27.6686C49.3517 27.6686 50.5501 27.649 51.7513 27.6742C52.4989 27.691 52.8125 27.4054 52.8433 26.6242C52.9357 24.3982 51.7205 23.0962 49.0437 22.6594C46.2633 22.2058 43.6957 24.0118 43.6481 26.4282C43.6313 27.2626 43.8749 27.7218 44.8101 27.6798C45.9217 27.6322 47.0361 27.6714 48.1505 27.6686Z" fill="url(#paint0_linear)"/>
<path d="M96.6546 29.7795C96.6546 30.8099 96.5986 31.8431 96.663 32.8679C96.929 37.0735 94.3558 39.7223 90.825 40.7387C87.4538 41.7075 84.1554 41.4275 81.1314 39.4311C79.1098 38.0983 78.0934 36.2251 78.071 33.8199C78.0458 31.4175 78.0486 29.0151 78.043 26.6127C78.0318 22.9279 79.4962 20.6823 82.9514 19.2851C86.7118 17.7647 90.335 18.0699 93.7062 20.3743C95.6774 21.7211 96.6826 23.6335 96.6714 26.0471C96.6658 27.2903 96.6714 28.5363 96.6714 29.7795H96.6546ZM92.2418 29.8187H92.2306C92.2306 28.8751 92.2334 27.9315 92.2306 26.9879C92.2222 24.6639 91.2618 23.3731 88.963 22.9559C87.8934 22.7627 86.7174 22.7543 85.6562 22.9811C84.217 23.2891 82.6826 23.9303 82.5566 25.6355C82.3634 28.2339 82.355 30.8631 82.523 33.4643C82.5762 34.3043 83.2706 35.2927 83.9594 35.8639C85.1802 36.8775 86.7342 37.1687 88.3302 36.9083C91.007 36.4715 92.2446 34.9847 92.239 32.2603C92.2418 31.4483 92.2418 30.6335 92.2418 29.8187Z" fill="url(#paint1_linear)"/>
<path d="M129.672 29.8691C129.672 30.8995 129.605 31.9327 129.684 32.9547C130.02 37.3423 127.304 39.8287 123.944 40.6827C120.97 41.4387 117.873 41.3743 115.02 39.9015C112.534 38.6163 111.173 36.6031 111.187 33.7135C111.198 31.3139 111.111 28.9143 111.061 26.5147C110.996 23.4207 112.352 21.1191 115.079 19.7359C119.161 17.6639 123.185 17.8459 126.965 20.5031C128.782 21.7799 129.754 23.5915 129.706 25.8819C129.678 27.2119 129.7 28.5391 129.7 29.8691H129.672ZM125.226 29.8327H125.218C125.218 28.8471 125.22 27.8615 125.218 26.8759C125.212 24.4931 124.294 23.3115 121.928 22.9279C120.931 22.7655 119.864 22.7683 118.87 22.9391C116.532 23.3395 115.504 24.6639 115.493 27.0327C115.485 29.0039 115.49 30.9751 115.474 32.9491C115.462 34.2063 115.975 35.1751 117.002 35.8891C118.414 36.8691 119.976 37.1967 121.648 36.8747C124.117 36.3959 125.232 35.0155 125.229 32.5347C125.226 31.6331 125.226 30.7315 125.226 29.8327Z" fill="url(#paint2_linear)"/>
<path d="M59.9634 23.8044C59.2914 22.5108 58.6698 21.3068 58.0034 20.0216C64.3594 18.2688 70.7826 18.2352 77.203 20.002C76.601 21.2396 76.055 22.4156 75.4418 23.5552C75.3578 23.7148 74.9294 23.7792 74.6802 23.7428C73.5798 23.5832 72.485 23.3928 71.393 23.1744C70.329 22.9616 69.8418 23.2136 69.853 24.4484C69.9006 29.5584 69.8194 34.6684 69.8698 39.7784C69.881 41.0076 69.5394 41.4332 68.2794 41.3884C64.9978 41.2736 65.4878 41.7664 65.4654 38.5828C65.4318 33.8592 65.4094 29.1356 65.4514 24.412C65.4626 23.2724 65.0398 22.9616 64.0038 23.1436C62.6598 23.3844 61.3102 23.586 59.9634 23.8044Z" fill="url(#paint3_linear)"/>
<path d="M39.2043 18.9155C36.7095 21.2619 35.9367 24.0171 36.1103 27.1027C36.1467 27.7523 35.8835 28.1163 35.2087 27.9903C32.6383 27.5087 30.2107 26.6827 28.4551 24.6135C26.7835 22.6423 26.6519 20.3939 27.7551 18.1343C28.3319 16.9527 29.1075 15.8439 29.9223 14.8023C32.0895 12.0359 34.3155 9.31425 36.5471 6.59825C36.8187 6.26785 37.2639 6.08305 37.6279 5.83105L37.9723 6.14185C37.7539 6.66825 37.5159 7.18345 37.3227 7.71825C36.4967 10.0087 35.4803 12.2543 34.9203 14.6063C34.2875 17.2691 35.2591 18.3779 38.0003 18.7979C38.2971 18.8455 38.5939 18.8595 39.2043 18.9155Z" fill="url(#paint4_linear)"/>
<path d="M131.344 5.86475C131.669 6.02715 132.097 6.10555 132.302 6.36315C135.107 9.88555 137.918 13.4051 140.646 16.9891C141.707 18.3835 142.23 20.0299 141.9 21.8275C141.295 25.1119 138.837 26.5371 136.012 27.4723C133.461 28.3151 133.349 28.2535 133.08 25.6635C132.817 23.1323 132.002 20.9203 129.908 19.0219C130.608 18.8819 131.14 18.7755 131.672 18.6719C133.73 18.2687 134.704 17.1403 134.189 15.1383C133.52 12.5427 132.509 10.0339 131.635 7.48875C131.484 7.05195 131.283 6.63475 131.103 6.20915C131.182 6.09435 131.263 5.97955 131.344 5.86475Z" fill="url(#paint5_linear)"/>
<path d="M110.912 18.5124C109.916 19.9572 109.006 21.374 107.978 22.7012C107.701 23.0596 107.074 23.1464 106.603 23.3508C105.142 23.9864 104.324 24.9356 104.358 26.6912C104.444 31.0676 104.344 35.4469 104.391 39.8233C104.402 40.9601 104.131 41.4361 102.888 41.3913C99.4519 41.2653 99.9979 41.8393 99.9615 38.4457C99.9167 34.5816 99.9223 30.7204 99.9083 26.8564C99.8943 22.7516 101.541 20.3996 105.422 19.0276C107.214 18.3976 109.05 18.1848 110.912 18.5124Z" fill="url(#paint6_linear)"/>
<defs>
<linearGradient id="paint0_linear" x1="48.185" y1="41.4263" x2="48.185" y2="18.1935" gradientUnits="userSpaceOnUse">
<stop stop-color="#7CC213"/>
<stop offset="1" stop-color="#68AB07"/>
</linearGradient>
<linearGradient id="paint1_linear" x1="87.3623" y1="41.2753" x2="87.3623" y2="18.3445" gradientUnits="userSpaceOnUse">
<stop stop-color="#7CC213"/>
<stop offset="1" stop-color="#68AB07"/>
</linearGradient>
<linearGradient id="paint2_linear" x1="120.385" y1="41.1606" x2="120.385" y2="18.3295" gradientUnits="userSpaceOnUse">
<stop stop-color="#7CC213"/>
<stop offset="1" stop-color="#68AB07"/>
</linearGradient>
<linearGradient id="paint3_linear" x1="67.6036" y1="41.3933" x2="67.6036" y2="18.6913" gradientUnits="userSpaceOnUse">
<stop stop-color="#7CC213"/>
<stop offset="1" stop-color="#68AB07"/>
</linearGradient>
<linearGradient id="paint4_linear" x1="33.1245" y1="28.0163" x2="33.1245" y2="5.83357" gradientUnits="userSpaceOnUse">
<stop stop-color="#70B317"/>
<stop offset="1" stop-color="#5A9E03"/>
</linearGradient>
<linearGradient id="paint5_linear" x1="135.953" y1="27.9555" x2="135.953" y2="5.86377" gradientUnits="userSpaceOnUse">
<stop stop-color="#70B317"/>
<stop offset="1" stop-color="#5A9E03"/>
</linearGradient>
<linearGradient id="paint6_linear" x1="105.411" y1="41.395" x2="105.411" y2="18.3596" gradientUnits="userSpaceOnUse">
<stop stop-color="#7CC213"/>
<stop offset="1" stop-color="#68AB07"/>
</linearGradient>
</defs>
</svg>
