<svg width="168" height="84" viewBox="0 0 168 84" fill="none" xmlns="http://www.w3.org/2000/svg">
<rect width="167" height="84" rx="14" fill="#FFFCFC"/>
<path d="M56.2745 53.9515C54.7009 56.2419 52.6009 57.2751 50.2377 57.7007C47.0093 58.2831 43.9377 57.7819 41.2749 55.7099C39.7349 54.5115 38.8529 52.8427 38.7633 50.9471C38.6177 47.8643 38.4945 44.7507 38.7549 41.6847C39.0601 38.0867 41.5017 36.0763 44.8225 35.1691C48.4233 34.1863 51.7889 34.6595 54.6533 37.2691C56.0281 38.5207 56.6777 40.1251 56.7393 41.9563C56.7869 43.3731 56.7169 44.7899 56.7617 46.2067C56.7981 47.3351 56.2717 47.7215 55.2021 47.7131C51.8113 47.6879 48.4177 47.6963 45.0269 47.7103C43.2041 47.7159 43.0949 47.8419 43.1173 49.5835C43.1565 52.5263 46.0797 54.6431 49.0981 53.8087C50.0613 53.5427 50.9881 53.0107 51.8113 52.4283C52.3881 52.0195 52.7717 51.8767 53.3933 52.2855C54.2753 52.8651 55.2217 53.3495 56.2745 53.9515ZM47.6505 44.1683C48.8517 44.1683 50.0501 44.1487 51.2513 44.1739C51.9989 44.1907 52.3125 43.9051 52.3433 43.1239C52.4357 40.8979 51.2205 39.5959 48.5437 39.1591C45.7633 38.7055 43.1957 40.5115 43.1481 42.9279C43.1313 43.7623 43.3749 44.2215 44.3101 44.1795C45.4217 44.1319 46.5361 44.1711 47.6505 44.1683Z" fill="url(#paint0_linear)"/>
<path d="M96.1546 46.2795C96.1546 47.3099 96.0986 48.3431 96.163 49.3679C96.429 53.5735 93.8558 56.2223 90.325 57.2387C86.9538 58.2075 83.6554 57.9275 80.6314 55.9311C78.6098 54.5983 77.5934 52.7251 77.571 50.3199C77.5458 47.9175 77.5486 45.5151 77.543 43.1127C77.5318 39.4279 78.9962 37.1823 82.4514 35.7851C86.2118 34.2647 89.835 34.5699 93.2062 36.8743C95.1774 38.2211 96.1826 40.1335 96.1714 42.5471C96.1658 43.7903 96.1714 45.0363 96.1714 46.2795H96.1546ZM91.7418 46.3187H91.7306C91.7306 45.3751 91.7334 44.4315 91.7306 43.4879C91.7222 41.1639 90.7618 39.8731 88.463 39.4559C87.3934 39.2627 86.2174 39.2543 85.1562 39.4811C83.717 39.7891 82.1826 40.4303 82.0566 42.1355C81.8634 44.7339 81.855 47.3631 82.023 49.9643C82.0762 50.8043 82.7706 51.7927 83.4594 52.3639C84.6802 53.3775 86.2342 53.6687 87.8302 53.4083C90.507 52.9715 91.7446 51.4847 91.739 48.7603C91.7418 47.9483 91.7418 47.1335 91.7418 46.3187Z" fill="url(#paint1_linear)"/>
<path d="M129.172 46.3691C129.172 47.3995 129.105 48.4327 129.184 49.4547C129.52 53.8423 126.804 56.3287 123.444 57.1827C120.47 57.9387 117.373 57.8743 114.52 56.4015C112.034 55.1163 110.673 53.1031 110.687 50.2135C110.698 47.8139 110.611 45.4143 110.561 43.0147C110.496 39.9207 111.852 37.6191 114.579 36.2359C118.661 34.1639 122.685 34.3459 126.465 37.0031C128.282 38.2799 129.254 40.0915 129.206 42.3819C129.178 43.7119 129.2 45.0391 129.2 46.3691H129.172ZM124.726 46.3327H124.718C124.718 45.3471 124.72 44.3615 124.718 43.3759C124.712 40.9931 123.794 39.8115 121.428 39.4279C120.431 39.2655 119.364 39.2683 118.37 39.4391C116.032 39.8395 115.004 41.1639 114.993 43.5327C114.985 45.5039 114.99 47.4751 114.974 49.4491C114.962 50.7063 115.475 51.6751 116.502 52.3891C117.914 53.3691 119.476 53.6967 121.148 53.3747C123.617 52.8959 124.732 51.5155 124.729 49.0347C124.726 48.1331 124.726 47.2315 124.726 46.3327Z" fill="url(#paint2_linear)"/>
<path d="M59.4634 40.3044C58.7914 39.0108 58.1698 37.8068 57.5034 36.5216C63.8594 34.7688 70.2826 34.7352 76.703 36.502C76.101 37.7396 75.555 38.9156 74.9418 40.0552C74.8578 40.2148 74.4294 40.2792 74.1802 40.2428C73.0798 40.0832 71.985 39.8928 70.893 39.6744C69.829 39.4616 69.3418 39.7136 69.353 40.9484C69.4006 46.0584 69.3194 51.1684 69.3698 56.2784C69.381 57.5076 69.0394 57.9332 67.7794 57.8884C64.4978 57.7736 64.9878 58.2664 64.9654 55.0828C64.9318 50.3592 64.9094 45.6356 64.9514 40.912C64.9626 39.7724 64.5398 39.4616 63.5038 39.6436C62.1598 39.8844 60.8102 40.086 59.4634 40.3044Z" fill="url(#paint3_linear)"/>
<path d="M38.7043 35.4157C36.2095 37.7621 35.4367 40.5173 35.6103 43.6029C35.6467 44.2525 35.3835 44.6165 34.7087 44.4905C32.1383 44.0089 29.7107 43.1829 27.9551 41.1137C26.2835 39.1425 26.1519 36.8941 27.2551 34.6345C27.8319 33.4529 28.6075 32.3441 29.4223 31.3025C31.5895 28.5361 33.8155 25.8145 36.0471 23.0985C36.3187 22.7681 36.7639 22.5833 37.1279 22.3313L37.4723 22.6421C37.2539 23.1685 37.0159 23.6837 36.8227 24.2185C35.9967 26.5089 34.9803 28.7545 34.4203 31.1065C33.7875 33.7693 34.7591 34.8781 37.5003 35.2981C37.7971 35.3457 38.0939 35.3597 38.7043 35.4157Z" fill="url(#paint4_linear)"/>
<path d="M130.844 22.3647C131.169 22.5271 131.597 22.6055 131.802 22.8631C134.607 26.3855 137.418 29.9051 140.146 33.4891C141.207 34.8835 141.73 36.5299 141.4 38.3275C140.795 41.6119 138.337 43.0371 135.512 43.9723C132.961 44.8151 132.849 44.7535 132.58 42.1635C132.317 39.6323 131.502 37.4203 129.408 35.5219C130.108 35.3819 130.64 35.2755 131.172 35.1719C133.23 34.7687 134.204 33.6403 133.689 31.6383C133.02 29.0427 132.009 26.5339 131.135 23.9887C130.984 23.5519 130.783 23.1347 130.603 22.7091C130.682 22.5943 130.763 22.4795 130.844 22.3647Z" fill="url(#paint5_linear)"/>
<path d="M110.412 35.0124C109.416 36.4572 108.506 37.874 107.478 39.2012C107.201 39.5596 106.574 39.6464 106.103 39.8508C104.642 40.4864 103.824 41.4356 103.858 43.1912C103.944 47.5676 103.844 51.9469 103.891 56.3233C103.902 57.4601 103.631 57.9361 102.388 57.8913C98.9519 57.7653 99.4979 58.3393 99.4615 54.9457C99.4167 51.0816 99.4223 47.2204 99.4083 43.3564C99.3943 39.2516 101.041 36.8996 104.922 35.5276C106.714 34.8976 108.55 34.6848 110.412 35.0124Z" fill="url(#paint6_linear)"/>
<defs>
<linearGradient id="paint0_linear" x1="47.685" y1="57.926" x2="47.685" y2="34.6933" gradientUnits="userSpaceOnUse">
<stop stop-color="#7CC213"/>
<stop offset="1" stop-color="#68AB07"/>
</linearGradient>
<linearGradient id="paint1_linear" x1="86.8623" y1="57.7753" x2="86.8623" y2="34.8445" gradientUnits="userSpaceOnUse">
<stop stop-color="#7CC213"/>
<stop offset="1" stop-color="#68AB07"/>
</linearGradient>
<linearGradient id="paint2_linear" x1="119.885" y1="57.6606" x2="119.885" y2="34.8295" gradientUnits="userSpaceOnUse">
<stop stop-color="#7CC213"/>
<stop offset="1" stop-color="#68AB07"/>
</linearGradient>
<linearGradient id="paint3_linear" x1="67.1036" y1="57.8933" x2="67.1036" y2="35.1913" gradientUnits="userSpaceOnUse">
<stop stop-color="#7CC213"/>
<stop offset="1" stop-color="#68AB07"/>
</linearGradient>
<linearGradient id="paint4_linear" x1="32.6245" y1="44.5165" x2="32.6245" y2="22.3338" gradientUnits="userSpaceOnUse">
<stop stop-color="#70B317"/>
<stop offset="1" stop-color="#5A9E03"/>
</linearGradient>
<linearGradient id="paint5_linear" x1="135.453" y1="44.4555" x2="135.453" y2="22.3638" gradientUnits="userSpaceOnUse">
<stop stop-color="#70B317"/>
<stop offset="1" stop-color="#5A9E03"/>
</linearGradient>
<linearGradient id="paint6_linear" x1="104.911" y1="57.895" x2="104.911" y2="34.8596" gradientUnits="userSpaceOnUse">
<stop stop-color="#7CC213"/>
<stop offset="1" stop-color="#68AB07"/>
</linearGradient>
</defs>
</svg>
