<svg width="74" height="74" viewBox="0 0 74 74" fill="none" xmlns="http://www.w3.org/2000/svg">
<path d="M67.0625 18.5H6.9375C5.66034 18.5 4.625 19.5353 4.625 20.8125V53.1875C4.625 54.4647 5.66034 55.5 6.9375 55.5H67.0625C68.3397 55.5 69.375 54.4647 69.375 53.1875V20.8125C69.375 19.5353 68.3397 18.5 67.0625 18.5Z" stroke="#4DB64B" stroke-width="4" stroke-linecap="round" stroke-linejoin="round"/>
<path d="M37 46.25C42.1086 46.25 46.25 42.1086 46.25 37C46.25 31.8914 42.1086 27.75 37 27.75C31.8914 27.75 27.75 31.8914 27.75 37C27.75 42.1086 31.8914 46.25 37 46.25Z" stroke="#4DB64B" stroke-width="4" stroke-linecap="round" stroke-linejoin="round"/>
<path d="M50.875 18.5L69.375 34.6875" stroke="#4DB64B" stroke-width="4" stroke-linecap="round" stroke-linejoin="round"/>
<path d="M50.875 55.5L69.375 39.3125" stroke="#4DB64B" stroke-width="4" stroke-linecap="round" stroke-linejoin="round"/>
<path d="M23.125 18.5L4.625 34.6875" stroke="#4DB64B" stroke-width="4" stroke-linecap="round" stroke-linejoin="round"/>
<path d="M23.125 55.5L4.625 39.3125" stroke="#4DB64B" stroke-width="4" stroke-linecap="round" stroke-linejoin="round"/>
</svg>
