<svg width="33" height="33" viewBox="0 0 33 33" fill="none" xmlns="http://www.w3.org/2000/svg">
<g clip-path="url(#clip0)">
<path d="M32.5 5.83301H0.5V27.1666H32.5V5.83301Z" fill="#F0F0F0"/>
<path d="M18.5 5.83301H14.5V14.4996H0.5V18.4996H14.5V27.1663H18.5V18.4996H32.5V14.4996H18.5V5.83301Z" fill="#D80027"/>
<path d="M25.1118 20.21L32.5003 24.3147V20.21H25.1118Z" fill="#0052B4"/>
<path d="M19.9785 20.21L32.5003 27.1665V25.1993L23.5195 20.21H19.9785Z" fill="#0052B4"/>
<path d="M29.1649 27.1665L19.9785 22.0625V27.1665H29.1649Z" fill="#0052B4"/>
<path d="M19.9785 20.21L32.5003 27.1665V25.1993L23.5195 20.21H19.9785Z" fill="#F0F0F0"/>
<path d="M19.9785 20.21L32.5003 27.1665V25.1993L23.5195 20.21H19.9785Z" fill="#D80027"/>
<path d="M6.14631 20.21L0.5 23.3468V20.21H6.14631Z" fill="#0052B4"/>
<path d="M13.0218 21.0947V27.1667H2.09326L13.0218 21.0947Z" fill="#0052B4"/>
<path d="M9.48081 20.21L0.5 25.1993V27.1665L13.0218 20.21H9.48081Z" fill="#D80027"/>
<path d="M7.88844 12.7893L0.5 8.68457V12.7893H7.88844Z" fill="#0052B4"/>
<path d="M13.0218 12.7895L0.5 5.83301V7.80013L9.48081 12.7895H13.0218Z" fill="#0052B4"/>
<path d="M3.83545 5.83301L13.0218 10.937V5.83301H3.83545Z" fill="#0052B4"/>
<path d="M13.0218 12.7895L0.5 5.83301V7.80013L9.48081 12.7895H13.0218Z" fill="#F0F0F0"/>
<path d="M13.0218 12.7895L0.5 5.83301V7.80013L9.48081 12.7895H13.0218Z" fill="#D80027"/>
<path d="M26.854 12.7892L32.5003 9.65234V12.7892H26.854Z" fill="#0052B4"/>
<path d="M19.9785 11.9049V5.83301H30.9071L19.9785 11.9049Z" fill="#0052B4"/>
<path d="M23.5195 12.7895L32.5003 7.80013V5.83301L19.9785 12.7895H23.5195Z" fill="#D80027"/>
</g>
<defs>
<clipPath id="clip0">
<rect width="32" height="32" fill="white" transform="translate(0.5 0.5)"/>
</clipPath>
</defs>
</svg>
