<svg width="69" height="68" viewBox="0 0 69 68" fill="none" xmlns="http://www.w3.org/2000/svg">
<path d="M58.795 49.205L58.2553 49.7057L58.9197 50.0228C64.4944 52.6839 68.3334 58.3186 68.3334 64.8332C68.3334 66.2536 67.1643 67.4166 65.7078 67.4166H37.5776C36.1212 67.4166 34.9521 66.2536 34.9521 64.8332C34.9521 58.3187 38.791 52.6838 44.3678 50.0163L45.0328 49.6982L44.4913 49.1979C42.4653 47.3262 41.2032 44.6625 41.2032 41.7082C41.2032 36.0307 45.8707 31.4166 51.6427 31.4166C57.4147 31.4166 62.0822 36.0307 62.0822 41.7082C62.0822 44.6624 60.8202 47.3265 58.795 49.205ZM12.1517 59.1426L12.1659 59.1442L12.1802 59.145L12.5447 59.1658L12.5589 59.1666H12.5731H21.9498C23.4063 59.1666 24.5754 60.3296 24.5754 61.7499C24.5754 63.0642 23.5746 64.158 22.271 64.3142L21.9356 64.3332H12.5731C7.84235 64.3332 3.98491 60.6883 3.71186 56.1047L3.69637 55.5759V46.3332C3.69637 44.9129 4.86544 43.7499 6.32194 43.7499C7.66879 43.7499 8.77124 44.7455 8.92823 46.0182L8.94751 46.3479V55.5832C8.94751 57.4268 10.353 58.9365 12.1517 59.1426ZM51.656 53.5418L51.656 53.5416H51.6427C46.592 53.5416 42.302 56.7733 40.7872 61.2624L40.787 61.2623L40.7832 61.2745L40.6819 61.6022L40.4815 62.2499H41.1595H62.1228H62.7946L62.6017 61.6063L62.5035 61.2786L62.501 61.2705L62.4983 61.2624C61.0465 56.9602 57.0462 53.813 52.2696 53.5583L52.2696 53.5581L52.2562 53.5577L51.656 53.5418ZM29.1196 2.98227C32.1694 4.52778 33.9521 6.70368 33.9521 9.33325V27.8332C33.9521 30.4628 32.1694 32.6387 29.1195 34.1842C26.0745 35.7273 21.8601 36.5832 17.2614 36.5832C12.7949 36.5832 8.68955 35.7757 5.66645 34.3144C2.63905 32.8511 0.789664 30.7856 0.589191 28.2944L0.570801 27.8235L0.570801 9.33039C0.570801 9.33031 0.570802 9.33023 0.570802 9.33015C0.57219 6.70155 2.35526 4.5264 5.40495 2.98145C8.44984 1.43892 12.6636 0.583252 17.2614 0.583252C21.8602 0.583252 26.0746 1.43923 29.1196 2.98227ZM6.51716 25.4466L5.8235 25.1571L5.82461 25.9088L5.82744 27.8347L5.8277 28.0144L5.94236 28.1529L6.07592 28.3141L6.0817 28.3211L6.08774 28.3279C6.1211 28.3653 6.16016 28.4076 6.20597 28.4551C6.66684 28.9328 7.42207 29.412 8.38458 29.8341C10.6608 30.832 13.8478 31.4166 17.2614 31.4166C20.6751 31.4166 23.8621 30.832 26.1383 29.8341C27.1008 29.4121 27.856 28.9328 28.3169 28.4551L28.3258 28.4459L28.3343 28.4361L28.5727 28.1621L28.6952 28.0213L28.6954 27.8347L28.6983 25.9088L28.6994 25.1571L28.0057 25.4466C25.0822 26.6666 21.3195 27.3332 17.2614 27.3332C13.2034 27.3332 9.44071 26.6666 6.51716 25.4466ZM56.7525 8.85724L56.7383 8.85562L56.724 8.8548L56.3595 8.83406L56.3453 8.83325H56.3311H46.9544C45.4979 8.83325 44.3288 7.67026 44.3288 6.24992C44.3288 4.93563 45.3295 3.84181 46.6332 3.68567L46.9686 3.66658H56.3311C61.0617 3.66658 64.9192 7.31147 65.1923 11.8951L65.2078 12.4239V21.6666C65.2078 23.0869 64.0387 24.2499 62.5822 24.2499C61.2353 24.2499 60.1329 23.2543 59.9759 21.9816L59.9566 21.652V12.4166C59.9566 10.573 58.5511 9.06333 56.7525 8.85724ZM28.7014 16.6577L28.7029 15.9056L28.0088 16.1953C25.0848 17.4161 21.3209 18.0833 17.2614 18.0833C13.202 18.0833 9.43809 17.4161 6.51412 16.1953L5.8213 15.9061L5.82148 16.6569L5.82194 18.5618L5.82196 18.6225L5.8365 18.6814L5.84199 18.7037L5.8694 18.8148L5.94236 18.9029L6.07592 19.0641L6.0817 19.0711L6.08773 19.0779C6.1211 19.1153 6.16017 19.1576 6.20597 19.2051C6.66684 19.6828 7.42207 20.1621 8.38459 20.5841C10.6608 21.582 13.8478 22.1666 17.2614 22.1666C20.6751 22.1666 23.8621 21.582 26.1383 20.5841C27.1008 20.1621 27.856 19.6828 28.3169 19.2051L28.3258 19.1959L28.3343 19.1861L28.5727 18.9121L28.6872 18.7805L28.6949 18.6062L28.6973 18.5531L28.6978 18.5425L28.6978 18.5318L28.7014 16.6577ZM6.08774 8.83859L6.0817 8.84536L6.07591 8.85235L5.94235 9.01362L5.67234 9.33966L5.94938 9.65975L6.18776 9.93517L6.19659 9.94539L6.20597 9.95511C6.66684 10.4328 7.42207 10.9121 8.38459 11.3341C10.6608 12.332 13.8478 12.9166 17.2614 12.9166C20.6751 12.9166 23.8621 12.332 26.1383 11.3341C27.1008 10.9121 27.856 10.4328 28.3169 9.95512C28.3627 9.90763 28.4018 9.86532 28.4351 9.82789L28.4406 9.82179L28.4458 9.81551L28.5457 9.69581L28.5578 9.6835L28.8847 9.3504L28.5749 9.00133L28.331 8.72658L28.3241 8.71882L28.3169 8.71136C27.856 8.23363 27.1008 7.75442 26.1383 7.33242C23.8621 6.33445 20.6751 5.74992 17.2614 5.74992C13.8478 5.74992 10.6608 6.33445 8.38458 7.33242C7.42207 7.75443 6.66684 8.23363 6.20598 8.71136C6.16017 8.75885 6.1211 8.80115 6.08774 8.83859ZM51.6427 36.5832C48.7837 36.5832 46.4544 38.8714 46.4544 41.7082C46.4544 44.5451 48.7837 46.8332 51.6427 46.8332C54.5017 46.8332 56.8311 44.5451 56.8311 41.7082C56.8311 38.8714 54.5017 36.5832 51.6427 36.5832Z" fill="#4DB64B" stroke="#1E2945"/>
</svg>
