<svg width="75" height="26" viewBox="0 0 75 26" fill="none" xmlns="http://www.w3.org/2000/svg">
<path d="M66.8725 7.6348C65.1119 7.6348 63.729 7.98244 62.3454 8.67639C62.3454 4.972 62.3454 1.61525 62.4718 0.458008L54.0445 1.84657V2.54118L54.9248 2.65684C56.0557 2.88816 56.4348 3.46644 56.6839 4.85634C56.9374 7.6348 56.8103 22.453 56.6839 24.8845C58.9478 25.3478 61.3381 25.6954 63.7283 25.6954C70.3943 25.6954 74.4188 21.8747 74.4188 15.8545C74.4188 11.1085 71.149 7.6348 66.8725 7.6348ZM63.9796 24.4212C63.4763 24.4212 62.8466 24.4212 62.4704 24.3062C62.344 22.6857 62.2191 15.8545 62.344 9.83497C63.0986 9.60299 63.6012 9.48733 64.2309 9.48733C66.9996 9.48733 68.5089 12.4971 68.5089 16.2008C68.5081 20.8331 66.6212 24.4212 63.9796 24.4212ZM22.3487 0.920639H0.212402V1.96223L1.47036 2.07788C3.10454 2.3092 3.73425 3.23513 3.98482 5.43463C4.36322 9.60232 4.23685 17.1281 3.98482 20.7155C3.73352 22.9157 3.10527 23.9579 1.47036 24.0722L0.212402 24.3049V25.2308H14.4247V24.3049L12.9154 24.0722C11.2805 23.9572 10.6516 22.9157 10.4003 20.7155C10.2739 19.2099 10.1482 16.7784 10.1482 13.7693L13.1667 13.885C15.0537 13.885 15.9332 15.2742 16.3109 17.2417H17.4432V9.0247H16.3109C15.9325 10.9929 15.0537 12.3814 13.1667 12.3814L10.149 12.4978C10.149 8.5614 10.2746 4.85701 10.401 2.65751H14.8024C18.1993 2.65751 19.9599 4.62503 21.2171 8.09877L22.475 7.75113L22.3487 0.920639Z" fill="white" fill-opacity="0.2"/>
</svg>
