<svg width="141" height="50" viewBox="0 0 141 50" fill="none" xmlns="http://www.w3.org/2000/svg">
<path d="M82.8725 17.6348C81.1119 17.6348 79.729 17.9824 78.3454 18.6764C78.3454 14.972 78.3454 11.6153 78.4718 10.458L70.0445 11.8466V12.5412L70.9248 12.6568C72.0557 12.8882 72.4348 13.4664 72.6839 14.8563C72.9374 17.6348 72.8103 32.453 72.6839 34.8845C74.9478 35.3478 77.3381 35.6954 79.7283 35.6954C86.3943 35.6954 90.4188 31.8747 90.4188 25.8545C90.4188 21.1085 87.149 17.6348 82.8725 17.6348ZM79.9796 34.4212C79.4763 34.4212 78.8466 34.4212 78.4704 34.3062C78.344 32.6857 78.2191 25.8545 78.344 19.835C79.0986 19.603 79.6012 19.4873 80.2309 19.4873C82.9996 19.4873 84.5089 22.4971 84.5089 26.2008C84.5081 30.8331 82.6212 34.4212 79.9796 34.4212ZM38.3487 10.9206H16.2124V11.9622L17.4704 12.0779C19.1045 12.3092 19.7342 13.2351 19.9848 15.4346C20.3632 19.6023 20.2368 27.1281 19.9848 30.7155C19.7335 32.9157 19.1053 33.9579 17.4704 34.0722L16.2124 34.3049V35.2308H30.4247V34.3049L28.9154 34.0722C27.2805 33.9572 26.6516 32.9157 26.4003 30.7155C26.2739 29.2099 26.1482 26.7784 26.1482 23.7693L29.1667 23.885C31.0537 23.885 31.9332 25.2742 32.3109 27.2417H33.4432V19.0247H32.3109C31.9325 20.9929 31.0537 22.3814 29.1667 22.3814L26.149 22.4978C26.149 18.5614 26.2746 14.857 26.401 12.6575H30.8024C34.1993 12.6575 35.9599 14.625 37.2171 18.0988L38.475 17.7511L38.3487 10.9206Z" fill="white" fill-opacity="0.2"/>
<path d="M45.5182 17.4034C51.8072 17.4034 54.9514 21.3397 54.9514 26.549C54.9514 31.527 51.4296 35.696 45.1405 35.696C38.8522 35.696 35.708 31.759 35.708 26.549C35.708 21.5711 39.2291 17.4034 45.5182 17.4034ZM45.1405 18.5613C42.3733 18.5613 41.6187 22.0344 41.6187 26.549C41.6187 30.948 42.8766 34.5368 45.3925 34.5368C48.2832 34.5368 49.0393 31.0637 49.0393 26.549C49.0393 22.15 47.7828 18.5613 45.1405 18.5613ZM92.0531 26.6653C92.0531 21.9187 95.323 17.4034 101.738 17.4034C107.019 17.4034 109.535 20.9928 109.535 25.7387H97.8381C97.7118 30.0221 99.9756 33.1482 104.504 33.1482C106.517 33.1482 107.523 32.6862 108.781 31.8753L109.283 32.4536C108.025 34.0741 105.259 35.696 101.738 35.696C96.0776 35.6953 92.0531 31.9909 92.0531 26.6653ZM97.8381 24.4658L103.75 24.3495C103.75 22.0344 103.372 18.5613 101.234 18.5613C99.0968 18.5613 97.9631 21.8024 97.8381 24.4658ZM124.504 18.33C122.995 17.7503 120.983 17.4034 118.719 17.4034C114.067 17.4034 111.172 19.9499 111.172 22.9603C111.172 25.9707 113.308 27.2436 116.331 28.1702C119.474 29.2112 120.355 30.0221 120.355 31.4113C120.355 32.8005 119.223 34.0735 117.21 34.0735C114.821 34.0735 113.059 32.8005 111.676 29.3268L110.795 29.5595L110.922 34.6531C112.431 35.2314 115.198 35.6953 117.588 35.6953C122.493 35.6953 125.638 33.3788 125.638 29.7908C125.638 27.3593 124.254 25.9707 120.984 24.8122C117.461 23.5392 116.205 22.729 116.205 21.2234C116.205 19.7185 117.339 18.6763 118.848 18.6763C121.11 18.6763 122.62 19.9499 123.753 23.0759L124.633 22.8446L124.504 18.33ZM71.3012 17.8667C69.1637 16.7101 65.3898 17.2877 63.378 21.4561L63.5029 17.404L55.0771 18.9089V19.6035L55.9573 19.7192C57.0904 19.8355 57.5922 20.4138 57.7186 21.9194C57.9699 24.6978 57.8443 29.5608 57.7186 31.9916C57.5922 33.3795 57.0904 34.0741 55.9573 34.1904L55.0771 34.3068V35.2327H66.7734V34.3068L65.2642 34.1904C64.007 34.0741 63.6293 33.3795 63.5029 31.9916C63.2516 29.7914 63.2516 25.3924 63.378 22.614C64.0062 21.803 66.7734 21.1091 69.2886 22.614L71.3012 17.8667Z" fill="white" fill-opacity="0.2"/>
</svg>
