<svg width="33" height="33" viewBox="0 0 33 33" fill="none" xmlns="http://www.w3.org/2000/svg">
<g clip-path="url(#clip0)">
<path d="M32.5 5.83398H0.5V27.1669H32.5V5.83398Z" fill="#F0F0F0"/>
<path d="M7.6265 16.4998L0.5 9.37012V23.6307L7.6265 16.4998Z" fill="black"/>
<path d="M10.5745 16.5002L0.5 6.41895V9.37057L7.6265 16.5003L0.5 23.6312V26.5773L10.5745 16.5002Z" fill="#FFDA44"/>
<path d="M32.3646 18.5874C32.3682 18.5599 32.4148 18.5325 32.5 18.505V16.5004V14.4135H32.3646H14.4126L5.83313 5.83398H0.5V6.41917L10.5745 16.5004L0.5 26.5775V27.1669H5.83313L14.4126 18.5874H32.3646Z" fill="#6DA544"/>
<path d="M31.949 20.6738H15.2772L8.78467 27.1663H32.5002V20.6738H31.949Z" fill="#0052B4"/>
<path d="M31.949 12.3265H32.5002V5.83398H8.78467L15.2772 12.3265H31.949Z" fill="#D80027"/>
</g>
<defs>
<clipPath id="clip0">
<rect width="32" height="32" fill="white" transform="translate(0.5 0.5)"/>
</clipPath>
</defs>
</svg>
