<svg width="39" height="39" viewBox="0 0 39 39" fill="none" xmlns="http://www.w3.org/2000/svg">
<path d="M19.4966 37C29.1616 37 36.9966 29.165 36.9966 19.5C36.9966 9.83502 29.1616 2 19.4966 2C9.8316 2 1.99658 9.83502 1.99658 19.5C1.99658 29.165 9.8316 37 19.4966 37Z" fill="#8DC351" stroke="#1F2635" stroke-width="3"/>
<path d="M24.6966 14C23.8966 12 21.9966 11.9 19.6966 12.3L18.8966 9.5L17.1966 10L17.9966 12.7C17.5966 12.8 17.0966 13 16.5966 13.1L15.7966 10.3L14.0966 10.8L14.8966 13.6C14.4966 13.7 14.1966 13.8 13.7966 13.9L11.4966 14.7L11.9966 16.5C11.9966 16.5 13.2966 16.1 13.1966 16.1C13.8966 15.9 14.1966 16.2 14.3966 16.6L15.2966 19.8C15.2966 19.8 15.3966 19.8 15.4966 19.8L15.2966 19.9L16.5966 24.4C16.5966 24.6 16.5966 25 16.0966 25.2L14.8966 25.6L15.0966 27.7L17.2966 27.1C17.6966 27 18.0966 26.9 18.4966 26.8L19.2966 29.6L20.9966 29.1L20.1966 26.3C20.6966 26.2 21.0966 26.1 21.5966 25.9L22.3966 28.7L24.0966 28.2L23.2966 25.4C26.0966 24.4 27.8966 23.1 27.3966 20.3C26.9966 18.1 25.6966 17.4 23.8966 17.5C24.8966 16.5 25.2966 15.5 24.6966 14ZM24.0966 20.8C24.6966 22.9 20.9966 23.7 19.7966 24.1L18.6966 20.3C19.8966 20 23.3966 18.6 24.0966 20.8ZM21.6966 15.7C22.2966 17.6 19.1966 18.3 18.1966 18.6L17.1966 15.2C18.1966 14.9 21.1966 13.7 21.6966 15.7Z" fill="white"/>
</svg>
