<svg width="33" height="33" viewBox="0 0 33 33" fill="none" xmlns="http://www.w3.org/2000/svg">
<path d="M16.5 0.5C13.3355 0.5 10.2421 1.43838 7.61088 3.19649C4.9797 4.95459 2.92894 7.45345 1.71793 10.3771C0.506932 13.3007 0.190079 16.5177 0.807443 19.6214C1.42481 22.7251 2.94866 25.5761 5.1863 27.8137C7.42394 30.0513 10.2749 31.5752 13.3786 32.1926C16.4823 32.8099 19.6993 32.4931 22.6229 31.2821C25.5466 30.0711 28.0454 28.0203 29.8035 25.3891C31.5616 22.7579 32.5 19.6645 32.5 16.5C32.5061 14.405 32.0995 12.3292 31.3034 10.3913C30.5073 8.4534 29.3373 6.69127 27.8602 5.20553C26.3831 3.71979 24.6278 2.53954 22.6946 1.73216C20.7614 0.924785 18.688 0.506096 16.593 0.5H16.5ZM16.7712 17.0424L15.1053 22.6598H24.0157C24.0748 22.6577 24.1336 22.6673 24.1889 22.688C24.2443 22.7087 24.295 22.7401 24.3381 22.7804C24.3813 22.8207 24.4161 22.8691 24.4406 22.9229C24.465 22.9766 24.4786 23.0347 24.4806 23.0937V23.2409L23.7058 25.914C23.6717 26.0405 23.5955 26.1515 23.4899 26.2289C23.3843 26.3064 23.2555 26.3456 23.1247 26.3402H9.4879L11.7736 18.5533L9.21671 19.3281L9.79783 17.546L12.3547 16.7712L15.5702 5.84625C15.6056 5.72054 15.6821 5.6103 15.7874 5.53307C15.8927 5.45584 16.0208 5.41607 16.1513 5.4201H19.5993C19.6583 5.41803 19.7172 5.42761 19.7725 5.4483C19.8278 5.46899 19.8785 5.50038 19.9217 5.54068C19.9648 5.58098 19.9996 5.62939 20.0241 5.68315C20.0486 5.73692 20.0622 5.79497 20.0642 5.85399V6.00121L17.3523 15.2215L19.9092 14.4467L19.3668 16.3063L16.7712 17.0424Z" fill="#345D9D"/>
</svg>
