<svg width="32" height="32" viewBox="0 0 32 32" fill="none" xmlns="http://www.w3.org/2000/svg">
<path d="M16 21C18.7614 21 21 18.7614 21 16C21 13.2386 18.7614 11 16 11C13.2386 11 11 13.2386 11 16C11 18.7614 13.2386 21 16 21Z" stroke="white" stroke-width="2" stroke-miterlimit="10"/>
<path d="M21.5 4.5H10.5C7.18629 4.5 4.5 7.18629 4.5 10.5V21.5C4.5 24.8137 7.18629 27.5 10.5 27.5H21.5C24.8137 27.5 27.5 24.8137 27.5 21.5V10.5C27.5 7.18629 24.8137 4.5 21.5 4.5Z" stroke="white" stroke-width="2" stroke-linecap="round" stroke-linejoin="round"/>
<path d="M23 9.5C23 9.77614 22.7761 10 22.5 10C22.2239 10 22 9.77614 22 9.5C22 9.22386 22.2239 9 22.5 9C22.7761 9 23 9.22386 23 9.5Z" fill="white" stroke="white" stroke-width="2"/>
</svg>
