<svg width="128" height="128" viewBox="0 0 128 128" fill="none" xmlns="http://www.w3.org/2000/svg">
<rect width="128" height="128" rx="14" fill="white"/>
<g clip-path="url(#clip0)">
<path d="M19.3826 54.9821C21.2843 54.8571 23.2226 55.2321 24.9232 56.0715C27.4466 57.2857 29.458 59.4643 30.3905 62.0357C30.8111 63.1785 31.0306 64.375 31.0306 65.5893V70.0714C31.0306 70.25 31.0306 70.4464 30.994 70.625C30.8843 71.0715 30.5551 71.4821 30.1163 71.6786C29.8055 71.8215 29.458 71.8393 29.1472 71.7857C28.4523 71.6607 27.9037 71.0179 27.9037 70.3215C27.9037 68.9286 27.9037 67.5357 27.9037 66.1429C27.922 65.75 27.922 65.3214 27.7025 64.9821C27.3551 64.3393 26.4774 64.0357 25.8009 64.3035C25.2157 64.5 24.7951 65.0893 24.7769 65.6964C24.7769 67.1072 24.7769 68.5179 24.7769 69.9285C24.7769 70.1964 24.7951 70.4643 24.7038 70.7143C24.5574 71.2143 24.1368 71.6072 23.6249 71.75C22.9483 71.9286 22.1803 71.6428 21.8512 71.0357C21.6134 70.6785 21.6318 70.2321 21.65 69.8214C21.65 68.4107 21.65 67.0179 21.65 65.6072C21.6318 64.8928 21.0283 64.25 20.3152 64.1607C19.8397 64.0893 19.346 64.25 18.9986 64.5714C18.6877 64.8572 18.5231 65.2678 18.5231 65.6786V69.7678C18.5231 70.1072 18.5597 70.4643 18.4317 70.7857C18.2306 71.375 17.6272 71.8035 16.9871 71.7857C16.3289 71.8215 15.6889 71.375 15.4877 70.7857C15.378 70.4822 15.3963 70.1786 15.3963 69.8571C15.3963 68.4465 15.3963 67.0357 15.3963 65.625C15.3963 64.9286 14.8294 64.2857 14.1346 64.1607C13.4946 64.0357 12.7997 64.3393 12.4706 64.9107C12.3426 65.1429 12.2694 65.4107 12.2694 65.6786V70.2679C12.2694 70.7143 12.0683 71.1607 11.7209 71.4465C11.1906 71.8929 10.3312 71.9286 9.78258 71.5179C9.38029 71.25 9.14258 70.7857 9.14258 70.3035V65.6607C9.14258 63.9107 9.59972 62.1607 10.4591 60.6071C11.154 59.3393 12.1231 58.2143 13.2751 57.3214C14.9757 55.9286 17.1517 55.1072 19.3826 54.9821Z" fill="#5741D9"/>
<path d="M62.1167 60.3572H59.7395C59.831 58.7321 60.1784 57.2678 61.6961 56.3393C63.2139 55.4286 64.8778 55.2143 66.615 55.3571C67.5476 55.4286 68.4801 55.625 69.3395 56.0179C70.8573 56.6964 71.607 57.8571 71.607 59.4821C71.607 62.3571 71.607 65.2322 71.607 68.1072C71.607 69.1607 71.8264 69.3572 72.9052 69.25C73.0149 69.2321 73.143 69.2143 73.2527 69.1964C73.271 69.25 73.271 69.3036 73.271 69.3392V71.0893C72.4115 71.375 71.5338 71.4643 70.6744 71.2322C70.0344 71.0536 69.6321 70.6071 69.4127 70.0178C69.303 69.7142 69.2298 69.3928 69.1384 69.0536C69.047 69.1607 68.9739 69.25 68.8824 69.3392C66.999 71.1964 64.7681 71.9822 62.135 71.3215C60.2698 70.8572 58.9899 69.1964 58.935 67.3036C58.9167 66.6964 58.9715 66.0893 59.1178 65.5C59.4652 64.1428 60.4527 63.3214 61.6961 62.7679C62.5738 62.375 63.5247 62.2678 64.4756 62.1428C65.591 62 66.6881 61.875 67.8035 61.7143C68.5532 61.6071 68.9373 61.2143 69.047 60.4821C69.2847 59 68.6081 58.0178 67.1452 57.6608C66.2675 57.4465 65.3715 57.4107 64.4756 57.5714C63.159 57.8036 62.4275 58.5357 62.1716 59.8036C62.1898 59.9822 62.1532 60.1607 62.1167 60.3572ZM69.1201 63.2143C68.0229 63.7857 66.9624 63.9286 65.8835 64.0893C64.9875 64.2321 64.0732 64.3572 63.1955 64.625C62.0435 65 61.5133 65.9286 61.623 67.1786C61.7144 68.2142 62.4275 69.0536 63.5795 69.2321C65.3533 69.5179 66.9258 69.0357 68.1693 67.75C68.535 67.375 68.8275 66.8393 68.9007 66.3392C69.0652 65.3393 69.047 64.3214 69.1201 63.2143ZM103.004 66.2143C102.949 66.4643 102.912 66.6786 102.857 66.875C101.833 69.9285 99.7484 71.2322 97.225 71.5178C92.855 71.9822 90.3498 69.1964 89.7099 66.2322C89.1978 63.875 89.271 61.5357 90.3315 59.3214C91.3372 57.2321 92.9464 55.8572 95.3418 55.4464C98.2124 54.9464 102.272 56.3393 102.949 60.7142C103.131 61.8392 103.168 63 103.278 64.1786H92.1601C92.2515 65.7857 92.5076 67.2857 93.7144 68.4464C94.2081 68.9286 94.8481 69.1607 95.543 69.2857C97.792 69.6786 99.6572 68.625 100.388 66.5C100.462 66.2678 100.572 66.1964 100.81 66.2143C101.522 66.2143 102.236 66.2143 103.004 66.2143ZM92.2515 62.1071H100.572C100.48 61.1607 100.315 60.2857 99.8582 59.4643C99.4193 58.6785 98.7794 58.1072 97.9017 57.8215C95.031 56.8572 92.0687 59.0893 92.2515 62.1071ZM108.983 71H106.459V55.6786H108.855V57.8215C109.038 57.625 109.148 57.5 109.258 57.375C110.976 55.4643 113.134 54.9643 115.584 55.5536C117.284 55.9643 118.236 57.1429 118.565 58.7857C118.693 59.4643 118.784 60.1607 118.784 60.8393C118.803 64.125 118.803 67.4108 118.803 70.6964C118.803 70.7858 118.784 70.875 118.784 70.9821H116.206V70.5714C116.206 67.5 116.224 64.4286 116.187 61.3571C116.187 60.6786 116.077 59.9822 115.876 59.3214C115.547 58.25 114.67 57.6786 113.518 57.625C111.415 57.5535 109.751 58.6429 109.239 60.4643C109.056 61.125 109.001 61.8214 109.001 62.5178C108.983 65.2142 108.983 67.8928 108.983 70.5536V71ZM75.7213 55.6786H78.1533V62.1786C78.2996 62.0357 78.3909 61.9643 78.4824 61.875C80.4755 59.8928 82.4687 57.8929 84.4618 55.9107C84.6264 55.7321 84.791 55.6607 85.047 55.6607C85.9796 55.6785 86.9304 55.6607 87.9544 55.6607C87.8081 55.8036 87.735 55.8928 87.6435 55.9821C85.8881 57.6964 84.1509 59.4286 82.3773 61.125C82.1761 61.3214 82.1761 61.4464 82.3041 61.6607C84.2241 64.6429 86.1258 67.625 88.0275 70.6071C88.1007 70.7143 88.1555 70.8214 88.247 70.9821C88.119 71 88.0275 71 87.9178 71C87.0401 71 86.1806 71 85.3029 71C85.0653 71 84.9555 70.9107 84.8276 70.7321C83.3647 68.3393 81.9018 65.9464 80.439 63.5357C80.3658 63.4286 80.3109 63.3214 80.2196 63.1964C79.5429 63.8571 78.8847 64.4822 78.2264 65.1428C78.135 65.2322 78.1166 65.3929 78.1166 65.5178C78.1166 67.1965 78.1166 68.875 78.1166 70.5536V70.9821C77.6413 70.9821 77.1658 70.9821 76.7087 70.9821C76.3796 70.9821 75.9224 71.0714 75.7395 70.8928C75.575 70.75 75.6664 70.2857 75.6664 69.9643V56.0893C75.7213 56 75.7213 55.8572 75.7213 55.6786ZM47.6527 55.6607C45.6778 57.5714 43.7578 59.4464 41.8196 61.3214C43.9041 64.5715 45.9339 67.75 48.0001 71C47.8355 71 47.7258 71.0179 47.6161 71.0179C46.775 71.0179 45.9155 71.0179 45.0744 71.0179C44.8367 71.0179 44.6904 70.9286 44.5624 70.7321C43.0995 68.3393 41.6367 65.9464 40.1739 63.5357C40.119 63.4286 40.0458 63.3393 39.9544 63.1964C39.5887 63.5714 39.2595 63.9822 38.8573 64.2679C38.0344 64.875 37.7967 65.625 37.8515 66.625C37.943 67.9286 37.8699 69.25 37.8699 70.5536V70.9821H35.4561V55.6786H37.8699V62.0714C37.9247 62.1071 37.9795 62.1428 38.0161 62.1786C38.0892 62.0714 38.1258 61.9465 38.1989 61.8572C40.1738 59.875 42.167 57.9107 44.1418 55.9107C44.3247 55.7321 44.4892 55.6429 44.7635 55.6607C45.5864 55.6785 46.4092 55.6607 47.2321 55.6607C47.3601 55.6607 47.4699 55.6607 47.6527 55.6607ZM52.4801 58.2143C53.7052 56.4643 55.0035 55 57.4173 55.4286V58.0536C56.7772 58.0892 56.1373 58.0714 55.5339 58.1965C54.0527 58.5 52.9007 59.8214 52.6629 61.4286C52.6264 61.75 52.5898 62.0714 52.5898 62.3929C52.5898 65.125 52.5898 67.8572 52.5898 70.5893V71.0179H50.103V55.7143H52.4801C52.4801 56.5178 52.4801 57.3214 52.4801 58.2143Z" fill="#5741D9"/>
</g>
<defs>
<clipPath id="clip0">
<rect width="109.714" height="51.4286" fill="white" transform="translate(9.14258 37.7143)"/>
</clipPath>
</defs>
</svg>
