<svg width="128" height="128" viewBox="0 0 128 128" fill="none" xmlns="http://www.w3.org/2000/svg">
<rect width="128" height="128" rx="14" fill="white"/>
<path d="M29.66 50.1333C33.7523 50.1333 36.3369 52.6333 36.3369 56.5916V70.7583C36.3369 74.7166 33.7523 77.2166 29.66 77.2166H15.0138C10.9215 77.2166 8.33691 74.6125 8.33691 70.7583V56.5916C8.33691 52.6333 10.9215 50.1333 15.0138 50.1333H29.66Z" fill="url(#paint0_linear)"/>
<path d="M12.5371 68.5708V65.6541L17.1679 61.2792H25.1371L32.0294 54.4042V57.3209L25.9986 63.1541H18.1371L12.5371 68.5708ZM12.5371 73.2583V70.3417L18.6756 64.4041H26.6448L32.1371 59.0916V62.0083L27.5063 66.3833H19.5371L12.5371 73.2583Z" fill="white"/>
<path d="M45.3834 68.7792H52.2757V70.8625H42.7988V56.2792H45.3834V68.7792ZM56.9064 70.7585H54.4295V59.9251H56.9064V70.7585ZM54.2141 57.1126C54.2141 56.8001 54.3218 56.3834 54.5372 56.1751C54.7526 55.9667 55.1834 55.8626 55.6141 55.8626C56.0449 55.8626 56.4757 55.9667 56.6911 56.1751C56.9065 56.3834 57.0141 56.6959 57.0141 57.1126C57.0141 57.425 56.9065 57.8417 56.6911 58.0501C56.4757 58.2584 56.0449 58.3626 55.6141 58.3626C55.1834 58.3626 54.7526 58.2584 54.5372 58.0501C54.3218 57.8417 54.2141 57.5292 54.2141 57.1126ZM69.6141 65.8626C69.6141 67.5293 69.2911 68.5709 68.4295 69.5084C67.568 70.4459 66.5988 70.9667 65.1988 70.9667C63.9065 70.9667 62.8295 70.5501 62.1834 69.6125V70.8625H59.9218V55.4459H62.3988V61.0709C63.1526 60.2376 64.1218 59.8209 65.3065 59.8209C66.7065 59.8209 67.7834 60.2376 68.5372 61.2793C69.3988 62.5293 69.6141 64.5084 69.6141 65.8626ZM66.4911 62.6335C66.0603 62.0084 65.4141 61.8001 64.6603 61.8001C63.5834 61.8001 62.8295 62.2168 62.3988 63.1542V67.6334C62.8295 68.5709 63.5834 69.0918 64.768 69.0918C65.5218 69.0918 66.168 68.7792 66.5988 68.2584C67.0295 67.7376 67.2449 66.8 67.2449 65.6542C67.2449 65.6542 67.2449 63.4668 66.4911 62.6335ZM76.9372 70.9667C75.3218 70.9667 74.0295 70.5501 73.0603 69.5084C72.0911 68.4667 71.5526 67.2167 71.5526 65.6542V65.3418C71.5526 64.3001 71.768 63.2584 72.1988 62.4251C72.6295 61.5917 73.2757 60.9668 74.0295 60.4459C74.7834 59.9251 75.6449 59.7168 76.6141 59.7168C78.1218 59.7168 79.3064 60.1334 80.168 61.1751C81.0295 62.1126 81.3526 63.4668 81.3526 65.1334V66.0709H74.0295C74.1372 67.0084 74.3526 67.6334 74.9988 68.2584C75.5372 68.7792 76.1834 69.0918 77.0449 69.0918C78.2295 69.0918 79.1988 68.6751 79.8449 67.7376L81.2449 68.9876C80.8141 69.6125 80.168 70.1334 79.4141 70.4459C78.6603 70.8625 77.9065 70.9667 76.9372 70.9667ZM76.6141 61.6959C75.8603 61.6959 75.4295 61.9042 74.8911 62.4251C74.4603 62.8417 74.1372 63.5709 74.0295 64.4042H78.8757V64.1959C78.8757 63.3626 78.5526 62.7375 78.2295 62.3209C77.9065 61.9042 77.368 61.6959 76.6141 61.6959ZM89.4295 62.2168C89.1065 62.2168 88.7834 62.1126 88.3526 62.1126C87.168 62.1126 86.4141 62.5293 85.9834 63.3626V70.7585H83.5065V59.9251H85.9834L86.0911 61.1751C86.7372 60.2375 87.4911 59.7168 88.6757 59.7168C88.9988 59.7168 89.3218 59.7168 89.5372 59.8209L89.4295 62.2168ZM94.9218 57.3209V59.9251H96.8603V61.6959H94.9218V67.8418C94.9218 68.2584 95.0295 68.5709 95.1372 68.7792C95.2449 68.9876 95.568 69.0918 95.9988 69.0918C96.3218 69.0918 96.5372 69.0918 96.8603 68.9876V70.8625C96.3218 70.9667 95.7834 71.0709 95.2449 71.0709C93.3064 71.0709 92.3372 70.0292 92.3372 67.9459V61.8001H90.5065V60.0292H92.3372V57.3209H94.9218ZM103.968 70.9667C102.353 70.9667 101.06 70.5501 100.091 69.5084C99.1221 68.4667 98.5836 67.2167 98.5836 65.6542V65.3418C98.5836 64.3001 98.7986 63.2584 99.2296 62.4251C99.6606 61.5917 100.307 60.9668 101.06 60.4459C101.815 59.9251 102.676 59.7168 103.645 59.7168C105.153 59.7168 106.338 60.1334 107.199 61.1751C108.061 62.1126 108.383 63.4668 108.383 65.1334V66.0709H101.06C101.168 67.0084 101.384 67.6334 102.03 68.2584C102.568 68.7792 103.214 69.0918 104.076 69.0918C105.261 69.0918 106.229 68.6751 106.876 67.7376L108.276 68.9876C107.845 69.6125 107.199 70.1334 106.445 70.4459C105.799 70.8625 104.937 70.9667 103.968 70.9667ZM103.753 61.6959C102.999 61.6959 102.568 61.9042 102.03 62.4251C101.599 62.8417 101.276 63.5709 101.168 64.4042H106.014V64.1959C106.014 63.3626 105.691 62.7375 105.368 62.3209C104.937 61.9042 104.399 61.6959 103.753 61.6959ZM114.738 63.5709L116.891 60.0292H119.691L116.245 65.3418L119.799 70.8625H117.107L114.845 67.2167L112.584 70.8625H109.784L113.337 65.3418L109.891 60.0292H112.691L114.738 63.5709Z" fill="#222222"/>
<defs>
<linearGradient id="paint0_linear" x1="22.3197" y1="77.2177" x2="22.3197" y2="50.1343" gradientUnits="userSpaceOnUse">
<stop stop-color="#FF5208"/>
<stop offset="1" stop-color="#FFA408"/>
</linearGradient>
</defs>
</svg>
