<svg width="128" height="128" viewBox="0 0 128 128" fill="none" xmlns="http://www.w3.org/2000/svg">
<rect width="128" height="128" rx="14" fill="white"/>
<path d="M46.8648 52.5271V68.2563C46.8648 69.0375 47.4879 69.6626 48.2667 69.6626H56.159V73.2563H46.8128C44.684 73.2563 43.0225 71.5375 43.0225 69.4542V52.5271H46.8648Z" fill="#2C3149"/>
<path d="M57.7695 58.6209H61.3522V73.3605H57.7695V58.6209Z" fill="#2C3149"/>
<path d="M60.3659 56.0688H58.6524C58.185 56.0688 57.7178 55.6521 57.7178 55.1313V53.4647C57.7178 52.9438 58.1331 52.5271 58.6524 52.5271H60.3659C60.8331 52.5271 61.3004 52.9438 61.3004 53.4647V55.0792C61.3524 55.6521 60.937 56.0688 60.3659 56.0688Z" fill="#2C3149"/>
<path d="M99.3601 56.0688H97.6459C97.1785 56.0688 96.7119 55.6521 96.7119 55.1313V53.4647C96.7119 52.9438 97.1266 52.5271 97.6459 52.5271H99.3601C99.8267 52.5271 100.294 52.9438 100.294 53.4647V55.0792C100.346 55.6521 99.9312 56.0688 99.3601 56.0688Z" fill="#2C3149"/>
<path d="M75.0076 79.4542V71.5896C73.9692 73.2042 71.6845 73.6209 70.1268 73.6209C65.5057 73.6209 62.8057 70.2354 62.8057 65.9646C62.8057 61.6416 65.7653 58.3083 70.2825 58.3083C71.8922 58.3083 73.8653 59.0375 75.0076 60.6521L75.2153 58.6209H78.5903V79.35L75.0076 79.4542ZM74.6441 66.0167C74.6441 63.7771 73.0864 61.85 70.4903 61.85C67.8941 61.85 66.3364 63.6729 66.3364 66.0167C66.3364 68.3604 68.0499 70.1833 70.4903 70.1833C72.9306 70.1833 74.6441 68.2563 74.6441 66.0167Z" fill="#2C3149"/>
<path d="M83.9383 58.6209V66.2771C83.9383 68.4647 85.1326 70.1834 87.4691 70.1834C89.6499 70.1834 91.2076 68.3605 91.2076 66.0688V58.6209H94.7902V73.2563H91.5191L91.3114 71.2772C89.8576 72.7875 88.4037 73.4647 86.3788 73.4647C82.9518 73.4647 80.3037 70.8605 80.3037 66.225V58.6209H83.9383Z" fill="#2C3149"/>
<path d="M96.7637 58.6209V73.3605H100.346V58.6209H96.7637Z" fill="#2C3149"/>
<path d="M117.845 52.5271V73.2563H114.47L114.262 71.2251C113.12 72.9959 111.303 73.5688 109.537 73.5688C105.227 73.5688 102.008 70.7563 102.008 65.9125C102.008 60.9125 105.175 58.2563 109.381 58.2563C110.939 58.2563 113.327 59.0897 114.158 60.6V52.5271H117.845ZM105.695 66.0167C105.695 68.5688 107.512 70.3396 109.849 70.3396C112.081 70.3396 114.055 68.725 114.055 66.0167C114.055 63.4646 112.081 61.7459 109.849 61.7459C107.512 61.6938 105.695 63.3083 105.695 66.0167Z" fill="#2C3149"/>
<path d="M18.2042 52.7876C17.6849 52.7876 17.2695 53.2042 17.2695 53.7251V57.6834C17.2695 58.4647 17.8926 59.0897 18.6715 59.0897H21.5273C22.3061 59.0897 22.9292 59.7147 22.9292 60.4959V64.923C22.9292 65.7042 23.5522 66.3293 24.3311 66.3293H28.6926C29.4715 66.3293 30.0945 66.9542 30.0945 67.7355V70.6001C30.0945 71.3813 30.7176 72.0064 31.4964 72.0064H35.4945C36.0138 72.0064 36.4292 71.5897 36.4292 71.0688V53.7251C36.4292 53.2042 36.0138 52.7876 35.4945 52.7876H18.2042Z" fill="#0157FF"/>
<path d="M17.425 70.7041V61.5375C17.425 60.7563 16.8019 60.0792 16.0231 60.0792H10.9346C10.4154 60.0792 10 60.4959 10 61.0166V78.4125C10 78.9333 10.4154 79.35 10.9346 79.35H28.3288C28.8481 79.35 29.2635 78.9333 29.2635 78.4125V73.6729C29.2635 72.8917 28.6404 72.2146 27.8616 72.2146H18.8788C18.0481 72.2146 17.425 71.5375 17.425 70.7041Z" fill="#0157FF"/>
</svg>
