<svg width="52" height="52" viewBox="0 0 52 52" fill="none" xmlns="http://www.w3.org/2000/svg">
<path d="M25.8452 0.667603C20.789 0.667603 15.8462 2.16511 11.6421 4.97077C7.43797 7.77642 4.16125 11.7642 2.2263 16.4298C0.29135 21.0955 -0.214921 26.2294 0.771508 31.1824C1.75794 36.1354 4.19276 40.685 7.76808 44.2559C11.3434 47.8269 15.8986 50.2587 20.8578 51.2439C25.8169 52.2291 30.9571 51.7235 35.6285 49.7909C40.2999 47.8583 44.2926 44.5856 47.1017 40.3867C49.9108 36.1877 51.4102 31.2511 51.4102 26.2011C51.4199 22.8577 50.7703 19.5452 49.4983 16.4526C48.2262 13.36 46.3568 10.5479 43.9967 8.17688C41.6365 5.80587 38.8319 3.92238 35.743 2.63394C32.6541 1.34549 29.3413 0.677331 25.9938 0.667603H25.8452ZM26.2785 27.0666L23.6168 36.0311H37.8539C37.9482 36.0278 38.0423 36.0431 38.1307 36.0761C38.2191 36.1092 38.3001 36.1593 38.369 36.2236C38.438 36.2879 38.4936 36.3651 38.5327 36.4509C38.5718 36.5367 38.5935 36.6294 38.5967 36.7236V36.9585L37.3587 41.2244C37.3041 41.4261 37.1825 41.6033 37.0138 41.7269C36.8451 41.8505 36.6393 41.9131 36.4302 41.9044H14.6412L18.2934 29.4778L14.2079 30.7142L15.1364 27.8703L19.2219 26.6338L24.3596 9.19936C24.4162 8.99876 24.5383 8.82283 24.7066 8.69958C24.8748 8.57634 25.0796 8.51287 25.2881 8.5193H30.7973C30.8916 8.51599 30.9856 8.53129 31.074 8.56431C31.1624 8.59733 31.2434 8.64742 31.3124 8.71173C31.3814 8.77604 31.437 8.8533 31.4761 8.93909C31.5151 9.02489 31.5369 9.11753 31.5401 9.21173V9.44666L27.207 24.1609L31.2925 22.9244L30.4259 25.8919L26.2785 27.0666Z" fill="#F0F5FC"/>
</svg>
