<svg width="187" height="58" viewBox="0 0 187 58" fill="none" xmlns="http://www.w3.org/2000/svg">
<path fill-rule="evenodd" clip-rule="evenodd" d="M17.0093 58H20.8096V35.0417H17.0093V58ZM32.2135 57.6558H36.0945V43.1673L52.4879 58V35.3859H48.6089V49.6289L32.2135 35.0421V57.6558ZM62.8204 52.0974C65.0159 53.7272 67.6452 54.6686 70.4695 54.6686C73.2134 54.6686 75.1378 53.7619 75.1378 51.7707C75.1378 50.0325 73.9204 49.3445 71.763 48.5847L68.2719 47.4246C65.0582 46.3422 62.6255 44.747 62.6255 41.0893C62.6255 37.1783 66.3115 35.0417 70.7448 35.0417C73.4506 35.0417 75.9214 35.693 77.8437 36.8532V40.7276C75.8432 39.3161 73.6456 38.336 70.823 38.336C68.3903 38.336 66.5847 39.2061 66.5847 41.0176C66.5847 42.6454 67.7239 43.2988 69.7244 43.9506L73.6071 45.2537C77.3735 46.5202 79.0971 48.4768 79.0971 51.6994C79.0971 55.7554 75.3729 58 70.4695 58C67.2536 58 64.5076 57.1299 62.8204 56.0455V52.0974ZM87.9677 58H91.77V35.0417H87.9677V58ZM113.237 54.524C118.139 54.524 120.762 51.4189 120.762 46.5198C120.762 41.5841 118.139 38.481 113.237 38.481H108.392V54.524H113.237ZM104.439 35.0417H113.39C120.268 35.0417 124.715 39.5268 124.715 46.5198C124.715 53.5129 120.268 58 113.39 58H104.441V35.0417H104.439ZM147.523 35.0417V38.481H137.401V44.0044H146.476V47.4091H137.401V54.5236H147.523V57.9996H133.584V35.0413H147.523V35.0417ZM161.537 45.4354H165.89C168.462 45.4354 169.918 44.053 169.918 41.9208C169.918 39.7901 168.464 38.4077 165.89 38.4077H161.537V45.4334V45.4354ZM161.537 48.6891V58H157.661V35.0417H165.964C170.701 35.0417 173.758 37.4352 173.758 41.9204C173.758 45.7736 172.051 47.9796 168.435 48.5401L176.667 58H172.268L164.297 48.6891H161.535H161.537ZM170.334 6.04765C170.334 9.70372 172.764 11.2985 175.978 12.3849L179.471 13.5431C181.626 14.3028 182.844 14.9932 182.844 16.729C182.844 18.7202 180.922 19.627 178.175 19.627C175.351 19.627 172.724 18.6855 170.528 17.0557V21.0018C172.215 22.0882 174.959 22.9583 178.175 22.9583C183.077 22.9583 186.805 20.7118 186.805 16.6557C186.805 13.4347 185.078 11.4782 181.313 10.2121L177.43 8.90892C175.43 8.25556 174.293 7.60378 174.293 5.97394C174.293 4.16443 176.097 3.29632 178.527 3.29632C181.354 3.29632 183.549 4.2728 185.55 5.68391V1.81151C183.627 0.651381 181.157 0 178.449 0C174.015 0 170.329 2.1362 170.329 6.04765H170.334ZM120.913 0V22.9583H134.852V19.4859H124.734V12.3614H133.809V8.96271H124.734V3.43736H134.852V0H120.913ZM66.7615 10.3937H71.4037C74.1477 10.3937 75.7004 9.01131 75.7004 6.8791C75.7004 4.74848 74.1477 3.36604 71.4037 3.36604H66.7635V10.3937H66.7615ZM66.7615 13.6474V22.9583H62.6234V0H71.484C76.5361 0 79.7962 2.39356 79.7962 6.8787C79.7962 10.732 77.9782 12.9379 74.1195 13.4984L82.8978 22.9583H78.2075L69.7045 13.6474C69.7041 13.6474 66.7615 13.6474 66.7615 13.6474ZM95.8199 9.98379L105.402 0H110.426L99.6368 10.9929L110.777 22.9583H105.635L95.8204 12.4526V22.9583H91.7709V0H95.8204V9.98379H95.8199ZM143.722 0H163.996V3.44134H155.917V22.9583H151.799V3.44134H143.722V0ZM38.9887 16.7234L42.9662 7.92688L46.9437 16.7234C46.9432 16.7234 38.9887 16.7234 38.9887 16.7234ZM49.7638 22.9583H53.7553L42.9844 0L32.2135 22.9583H36.1707L37.4965 20.0234H48.4359L49.7638 22.9583ZM20.6912 9.91009V22.9583H24.6104V0L12.574 12.2359L0.535645 0V22.9583H4.45682V9.91009L12.574 18.1597L20.6912 9.91009Z" fill="white" fill-opacity="0.2"/>
</svg>
