<svg width="187" height="28" viewBox="0 0 187 28" fill="none" xmlns="http://www.w3.org/2000/svg">
<path d="M45.289 11.8159L44.9878 13.3889H44.9353C44.5326 12.4748 43.3806 11.2579 40.9226 11.2579C36.9099 11.2579 32.8464 14.4039 31.9447 19.3267C31.1429 23.6401 33.249 27.4469 37.9638 27.4469C39.7198 27.4469 41.7279 26.7383 42.7294 25.2645H42.7819L42.4807 26.8889H46.8926L49.6518 11.7645H45.289V11.8159ZM43.8848 19.3267C43.5837 20.797 42.2304 23.2344 39.4204 23.2344C36.712 23.2344 36.1605 20.7987 36.4091 19.4259C36.7103 17.7005 38.2649 15.5181 40.821 15.5181C43.3299 15.5181 44.1825 17.5482 43.8813 19.3267H43.8848ZM52.2114 11.8159H56.3747L56.0736 13.3889H56.1261C56.6776 12.6803 57.6808 11.2579 60.2894 11.2579L59.4875 15.8281C57.3814 15.8813 55.811 16.2852 55.4748 18.6199L53.9202 26.9456H49.3682L52.2114 11.8159ZM63.2972 5.87807H67.8141L65.708 17.2966H65.8078L70.9725 11.8159H76.2387L69.367 18.464L73.329 26.9403H68.2623L65.3526 19.6314H65.3176L63.9625 26.9403H59.4981L63.2972 5.87807ZM83.4308 11.2579C78.9139 11.2579 74.8521 15.217 74.0993 19.4294C73.2975 23.8934 76.2563 27.4487 80.5701 27.4487C82.1748 27.4412 83.7433 26.9651 85.087 26.0776C86.4911 25.2149 87.7955 23.8952 88.8512 22.2212H84.2869C83.5341 23.0325 82.6815 23.6419 81.2757 23.6419C79.5197 23.6419 78.2644 22.5755 78.2994 20.8005H89.5042C89.6548 20.4462 89.7055 20.1911 89.8053 19.6314C90.6579 14.9619 88.002 11.2579 83.4326 11.2579H83.4308ZM78.9139 17.7058C79.264 16.7918 80.4686 15.1196 82.8268 15.1196C85.1343 15.1196 85.7366 16.7936 85.7366 17.7058H78.9139ZM25.3269 26.9403H29.7913V5.86035H25.9782L18.0525 17.8352H18V5.86035H14.1886L0.194824 26.9403H5.61165L13.4865 14.9655H13.5391V26.9403H17.4012L25.2271 14.9655H25.3269V26.9403ZM101.169 11.8159H98.3613L99.1631 7.35189H95.2502L94.949 9.07725C94.5989 11.0559 93.3944 11.6635 91.7382 11.8176H91.6856L90.9853 15.2188H93.1913L91.0343 26.9101H95.4988L97.6557 15.2188H100.515L101.169 11.8159Z" fill="white" fill-opacity="0.2"/>
<path d="M170.387 21.2079C168.934 24.6586 165.422 27.4504 161.409 27.4504C156.892 27.4504 154.035 23.8473 154.888 19.3302C155.69 14.8662 159.755 11.2614 164.268 11.2614C168.23 11.2614 170.921 13.9504 170.991 17.6385H166.474C166.173 16.5721 165.522 15.5075 163.615 15.5075C161.509 15.4065 159.753 17.1815 159.352 19.316C158.949 21.4984 160.052 23.1724 162.211 23.1724C164.067 23.1724 165.187 22.106 165.823 21.1424H170.387V21.2079ZM133.271 0.5L124.594 5.87981H127.053L119.178 17.8546H119.078V5.87981H115.214L107.336 17.8564H107.283V5.88158H102.766V26.9615H106.679L114.554 14.9867H114.606V26.9615H118.469L132.413 5.88158H134.619L133.271 0.5ZM141.797 26.942H137.385L137.687 25.3176H137.634C136.58 26.7879 134.623 27.5 132.869 27.5C128.103 27.5 126.048 23.6914 126.849 19.3798C127.753 14.4553 131.865 11.311 135.827 11.311C138.285 11.311 139.439 12.5297 139.84 13.442H139.893L140.194 11.869H144.606L141.797 26.942ZM134.273 23.2397C137.032 23.2397 138.436 20.804 138.737 19.332C139.038 17.5074 138.186 15.5234 135.677 15.5234C133.121 15.5234 131.562 17.7058 131.265 19.4312C130.964 20.8519 131.566 23.2397 134.276 23.2397H134.273ZM155.789 11.8212H152.981L153.783 7.35717H149.87L149.569 9.08254C149.219 11.0612 148.014 11.6688 146.358 11.8229H146.306L145.654 15.2241H147.86L145.703 26.9154H150.168L152.325 15.2241H155.184L155.789 11.8212ZM174.599 5.88335H179.064L177.709 13.3942H177.761C178.714 11.9735 180.02 11.2632 181.975 11.2632C183.379 11.2632 184.987 11.8212 185.739 12.9371C186.692 14.4074 186.592 15.7289 186.09 18.4693L184.535 26.8942H180.071L181.576 18.6748C181.727 17.9662 182.128 15.4774 179.773 15.4774C177.264 15.4774 176.863 17.7625 176.713 18.5242L175.158 26.8977H170.746L174.599 5.88335Z" fill="#B1B1B1" fill-opacity="0.2"/>
</svg>
