<svg width="41" height="53" viewBox="0 0 41 53" fill="none" xmlns="http://www.w3.org/2000/svg">
<path d="M20.6031 0.667603C9.39924 0.711858 0.327719 9.63255 0.282715 20.6501C0.282715 22.8566 0.64489 25.0483 1.35424 27.141C1.88357 28.5656 3.45442 29.3327 4.92884 28.8922C6.35397 28.3548 7.11046 26.8227 6.65614 25.3897C6.05394 23.7586 5.78606 22.0284 5.86535 20.2961C6.10966 12.3385 12.8667 6.08155 20.9588 6.3218C29.051 6.56204 35.4137 13.2067 35.1694 21.1643C34.9401 28.614 28.9738 34.6644 21.4067 35.1175C21.4067 35.1175 18.5543 35.2882 17.1356 35.4589C16.6127 35.5327 16.0941 35.6338 15.5819 35.7624C15.5091 35.8361 15.3912 35.8361 15.3162 35.7645L15.314 35.7624C15.2626 35.6971 15.2626 35.6043 15.314 35.539L15.7555 33.1703L18.4343 21.3224C18.7558 19.843 17.7978 18.3867 16.2934 18.0706C14.789 17.7545 13.3082 18.6965 12.9867 20.1759C12.9867 20.1759 6.61542 49.1761 6.61542 49.4395C6.2511 50.8494 7.11689 52.2824 8.55059 52.6407C8.56559 52.6449 8.58274 52.6491 8.59774 52.6512H8.74561C10.1772 53.0158 11.6387 52.1686 12.0073 50.7609C12.0138 50.7377 12.0202 50.7145 12.0245 50.6892C12.0202 50.645 12.0202 50.6007 12.0245 50.5585C12.1038 50.2171 12.9074 46.3585 12.9074 46.3585C13.516 43.446 15.9034 41.2143 18.8908 40.7633C19.5058 40.6706 22.0904 40.4999 22.0904 40.4999C33.2513 39.4061 41.3971 29.6214 40.2827 18.646C39.2669 8.63574 30.834 0.928922 20.6031 0.667603Z" fill="#FFFDFD"/>
</svg>
