<svg width="46" height="50" viewBox="0 0 46 50" fill="none" xmlns="http://www.w3.org/2000/svg">
<path d="M30.1097 1.40363C26.9068 3.30285 25.0168 6.70984 25.0168 10.3198C25.0168 12.219 25.767 14.1182 26.7192 15.8145C27.4694 17.3368 27.859 19.9899 25.2043 21.3092C23.3143 22.4545 20.8617 21.6861 19.7363 19.7869C18.5965 18.2646 17.2836 16.7568 15.5812 15.6115C12.3783 13.7123 8.59831 13.7123 5.38098 15.6115C2.17809 17.5107 0.288086 20.9177 0.288086 24.5277C0.288086 28.1376 2.17809 31.5446 5.38098 33.4439C8.58388 35.3431 12.3639 35.3431 15.5812 33.4439C17.2836 32.5015 18.5965 30.9792 19.5488 29.2685C20.299 27.9347 22.3765 26.2384 25.0168 27.7462C26.9068 28.8915 27.4694 31.3562 26.5317 33.2409C25.5939 34.9516 25.0168 36.8508 25.0168 38.7356C25.0168 42.3455 26.9068 45.7525 30.1097 47.6517C33.3126 49.551 37.0926 49.551 40.3099 47.6517C43.5128 45.7525 45.4028 42.3455 45.4028 38.7356C45.4028 35.1256 43.5128 31.7186 40.3099 29.8194C38.6074 28.877 36.7175 28.4856 34.6399 28.4856C32.9375 28.4856 30.6723 27.3403 30.6723 24.4987C30.6723 22.2225 32.3748 20.5118 34.6399 20.5118C36.5299 20.5118 38.6074 20.1348 40.3099 19.178C43.5128 17.2788 45.4028 13.8718 45.4028 10.2618C45.4028 6.65185 43.5128 3.24486 40.3099 1.34564C38.795 0.403284 36.905 0.0118408 35.217 0.0118408C33.5001 0.0698322 31.6101 0.446773 30.1097 1.40363Z" fill="white"/>
</svg>
