<svg width="40" height="70" viewBox="0 0 40 70" fill="none" xmlns="http://www.w3.org/2000/svg">
<path fill-rule="evenodd" clip-rule="evenodd" d="M1 19.5C1 9.28272 9.51289 1 20.0139 1C30.5149 1 39.0278 9.28272 39.0278 19.5V65.75C39.0278 67.4529 37.609 68.8333 35.8588 68.8333H4.16898C2.4188 68.8333 1 67.4529 1 65.75V39.5417C1 37.8393 2.418 36.4591 4.16749 36.4583M7.33796 42.494V62.6667H32.6898V34.3181C29.2821 37.1789 24.9764 38.9997 20.9245 40.1825C16.7045 41.4142 12.528 42.0198 9.43584 42.3206C8.66938 42.3952 7.96505 42.4515 7.33796 42.494ZM4.16749 36.4583L4.17686 36.4583L4.22922 36.4579C4.27864 36.4574 4.35671 36.4565 4.46151 36.4544C4.67117 36.4503 4.98742 36.442 5.39496 36.425C6.21082 36.391 7.38809 36.3224 8.80519 36.1846C11.6549 35.9073 15.4008 35.3566 19.1033 34.2759C22.8389 33.1855 26.3035 31.6202 28.7873 29.4452C31.1804 27.3496 32.6898 24.6814 32.6898 21.0417V19.5C32.6898 12.6885 27.0145 7.16667 20.0139 7.16667C13.0132 7.16667 7.33796 12.6885 7.33796 19.5C7.33796 21.2029 5.91916 22.5833 4.16898 22.5833C2.4188 22.5833 1 21.2029 1 19.5M28.5927 45.0698C29.8302 46.2739 29.8302 48.2261 28.5927 49.4302L20.6702 57.1386C19.4326 58.3427 17.4262 58.3427 16.1886 57.1386L11.4351 52.5136C10.1976 51.3095 10.1976 49.3572 11.4351 48.1531C12.6727 46.949 14.6792 46.949 15.9167 48.1531L18.4294 50.5978L24.111 45.0698C25.3486 43.8656 27.3551 43.8656 28.5927 45.0698Z" fill="#4DB64B"/>
<path d="M20.0139 1C9.51289 1 1 9.28272 1 19.5C1 21.2029 2.4188 22.5833 4.16898 22.5833C5.91916 22.5833 7.33796 21.2029 7.33796 19.5C7.33796 12.6885 13.0132 7.16667 20.0139 7.16667C27.0145 7.16667 32.6898 12.6885 32.6898 19.5V21.0417C32.6898 24.6814 31.1804 27.3496 28.7873 29.4452C26.3035 31.6202 22.8389 33.1855 19.1033 34.2759C15.4008 35.3566 11.6549 35.9073 8.80519 36.1846C7.38809 36.3224 6.21082 36.391 5.39496 36.425C4.98742 36.442 4.67117 36.4503 4.46151 36.4544C4.35671 36.4565 4.27864 36.4574 4.22922 36.4579L4.17686 36.4583L4.16749 36.4583C2.418 36.4591 1 37.8393 1 39.5417V65.75C1 67.4529 2.4188 68.8333 4.16898 68.8333H35.8588C37.609 68.8333 39.0278 67.4529 39.0278 65.75V19.5C39.0278 9.28272 30.5149 1 20.0139 1ZM7.33796 62.6667V42.494C7.96505 42.4515 8.66938 42.3952 9.43584 42.3206C12.528 42.0198 16.7045 41.4142 20.9245 40.1825C24.9764 38.9997 29.2821 37.1789 32.6898 34.3181V62.6667H7.33796ZM28.5927 49.4302C29.8302 48.2261 29.8302 46.2739 28.5927 45.0698C27.3551 43.8656 25.3486 43.8656 24.111 45.0698L18.4294 50.5978L15.9167 48.1531C14.6792 46.949 12.6727 46.949 11.4351 48.1531C10.1976 49.3572 10.1976 51.3095 11.4351 52.5136L16.1886 57.1386C17.4262 58.3427 19.4326 58.3427 20.6702 57.1386L28.5927 49.4302Z" stroke="#1E2945" stroke-linecap="round" stroke-linejoin="round"/>
</svg>
