<svg width="19" height="19" viewBox="0 0 19 19" fill="none" xmlns="http://www.w3.org/2000/svg">
<path d="M9.02447 1.08156C9.17415 0.620903 9.82585 0.620905 9.97553 1.08156L11.4941 5.75532C11.6949 6.37336 12.2709 6.7918 12.9207 6.7918H17.835C18.3194 6.7918 18.5207 7.4116 18.1289 7.6963L14.1531 10.5848C13.6274 10.9668 13.4074 11.6439 13.6082 12.2619L15.1268 16.9357C15.2765 17.3963 14.7493 17.7794 14.3574 17.4947L10.3817 14.6061C9.85595 14.2242 9.14405 14.2242 8.61832 14.6061L4.64258 17.4947C4.25073 17.7794 3.72349 17.3963 3.87316 16.9357L5.39176 12.2619C5.59257 11.6439 5.37258 10.9668 4.84685 10.5848L0.871114 7.6963C0.479257 7.4116 0.680645 6.7918 1.16501 6.7918H6.07929C6.72913 6.7918 7.30506 6.37336 7.50587 5.75532L9.02447 1.08156Z" fill="#F2D74C" stroke="#F2D74C"/>
</svg>
