<svg width="38" height="38" viewBox="0 0 38 38" fill="none" xmlns="http://www.w3.org/2000/svg">
<path d="M13.9998 19.8588L25.2395 29.7497C25.3695 29.8641 25.5271 29.9428 25.6967 29.9781C25.8663 30.0133 26.0421 30.0039 26.207 29.9507C26.3719 29.8976 26.5201 29.8025 26.6372 29.6748C26.7543 29.5471 26.8362 29.3912 26.8748 29.2224L31.5766 8.7058C31.6172 8.52841 31.6087 8.34329 31.5519 8.17039C31.4951 7.9975 31.3922 7.84337 31.2543 7.72463C31.1164 7.60588 30.9487 7.52702 30.7693 7.49655C30.5899 7.46607 30.4056 7.48513 30.2362 7.55167L7.16657 16.6147C6.96552 16.6937 6.79544 16.8357 6.6818 17.0194C6.56815 17.2031 6.51705 17.4187 6.53614 17.6338C6.55522 17.849 6.64347 18.0522 6.78768 18.213C6.93188 18.3739 7.12429 18.4837 7.33611 18.5261L13.9998 19.8588Z" stroke="white" stroke-width="2" stroke-linecap="round" stroke-linejoin="round"/>
<path d="M14 19.8592L31.014 7.57129" stroke="white" stroke-width="2" stroke-linecap="round" stroke-linejoin="round"/>
<path d="M19.6134 24.7987L15.7071 28.7049C15.5673 28.8448 15.3891 28.94 15.1951 28.9786C15.0011 29.0172 14.8 28.9974 14.6173 28.9217C14.4346 28.846 14.2784 28.7179 14.1685 28.5534C14.0587 28.389 14 28.1956 14 27.9978V19.8589" stroke="white" stroke-width="2" stroke-linecap="round" stroke-linejoin="round"/>
</svg>
