<svg width="39" height="38" viewBox="0 0 39 38" fill="none" xmlns="http://www.w3.org/2000/svg">
<path d="M13.5626 20.0202L26.9097 31.7656C27.0641 31.9015 27.2512 31.995 27.4526 32.0368C27.654 32.0787 27.8629 32.0675 28.0586 32.0044C28.2544 31.9412 28.4304 31.8283 28.5695 31.6767C28.7085 31.5251 28.8057 31.3399 28.8517 31.1394L34.435 6.776C34.4832 6.56535 34.4731 6.34553 34.4057 6.14021C34.3383 5.93489 34.2161 5.75187 34.0523 5.61086C33.8885 5.46985 33.6894 5.37621 33.4764 5.34001C33.2633 5.30382 33.0444 5.32646 32.8433 5.40548L5.44811 16.1679C5.20936 16.2617 5.00739 16.4302 4.87244 16.6484C4.73749 16.8665 4.67681 17.1225 4.69947 17.378C4.72213 17.6336 4.82693 17.8749 4.99817 18.0659C5.16941 18.2568 5.3979 18.3873 5.64944 18.4376L13.5626 20.0202Z" stroke="#4195F0" stroke-width="2" stroke-linecap="round" stroke-linejoin="round"/>
<path d="M13.5625 20.0196L33.7667 5.42773" stroke="#4195F0" stroke-width="2" stroke-linecap="round" stroke-linejoin="round"/>
<path d="M20.2284 25.8865L15.5897 30.5252C15.4236 30.6913 15.212 30.8044 14.9817 30.8502C14.7513 30.896 14.5126 30.8725 14.2956 30.7826C14.0786 30.6927 13.8931 30.5405 13.7626 30.3452C13.6321 30.15 13.5625 29.9204 13.5625 29.6855V20.0205" stroke="#4195F0" stroke-width="2" stroke-linecap="round" stroke-linejoin="round"/>
</svg>
