<svg width="153" height="36" viewBox="0 0 153 36" fill="none" xmlns="http://www.w3.org/2000/svg">
<path d="M67.6458 3.96C65.0643 1.44 61.561 0 57.8732 0H37.6828V36H51.5118V13.5H55.9371C57.1357 13.5 58.3342 13.95 59.1639 14.85L63.958 19.53C64.7878 20.34 65.3409 21.51 65.3409 22.68V36H79.17V20.79C79.17 17.19 77.6949 13.77 75.1135 11.25L67.6458 3.96ZM139.096 0V13.32C139.096 14.49 138.635 15.66 137.713 16.47L132.919 21.15C132.089 21.96 130.891 22.5 129.692 22.5H123.054C124.437 20.34 125.267 17.82 125.267 15.21V0H111.438V13.32C111.438 14.49 110.977 15.66 110.055 16.47L105.261 21.15C104.431 21.96 103.233 22.5 102.034 22.5H97.6088V0H83.7797V36H103.97C107.658 36 111.161 34.56 113.743 32.04L118.352 27.54V36H131.628C135.316 36 138.82 34.56 141.401 32.04L148.869 24.75C151.45 22.23 152.925 18.81 152.925 15.21V0H139.096ZM0.805176 13.5H10.0246V36H23.8537V13.5H33.0731V0H0.805176V13.5Z" fill="white" fill-opacity="0.2"/>
</svg>
