<svg width="27" height="23" viewBox="0 0 27 23" fill="none" xmlns="http://www.w3.org/2000/svg">
<path d="M2.00019 20C2.00019 20 7.00019 19 8.00019 16C8.00019 16 0.000186861 13 2.00019 2C2.00019 2 6.00019 7 12.0002 8V6.00036C12.0003 4.85156 12.3959 3.73783 13.1206 2.84641C13.8452 1.95498 14.8547 1.34023 15.9792 1.10551C17.1038 0.870781 18.2749 1.0304 19.2956 1.55752C20.3164 2.08464 21.1245 2.94712 21.5841 3.99996L26.0002 4L22.0002 8C22.0002 15 17.0002 22 8.00019 22C4.00019 22 2.00019 20 2.00019 20Z" stroke="white" stroke-width="2" stroke-linecap="round" stroke-linejoin="round"/>
</svg>
