<svg width="49" height="56" viewBox="0 0 49 56" fill="none" xmlns="http://www.w3.org/2000/svg">
<g clip-path="url(#clip0)">
<path d="M19.1439 13.1945C18.5434 13.1093 18.5148 13.0809 18.8008 13.0524C19.344 12.9672 20.6021 13.0809 21.4885 13.2798C23.5472 13.7629 25.4058 15.0132 27.3787 17.2013L27.8934 17.7981L28.6368 17.6844C31.8107 17.1729 35.0703 17.5707 37.7866 18.8211C38.5301 19.1621 39.7024 19.8441 39.8454 20.0146C39.9025 20.0714 39.9883 20.4409 40.0455 20.8103C40.2457 22.1459 40.1599 23.1405 39.731 23.9077C39.5022 24.334 39.5022 24.4477 39.6452 24.8171C39.7596 25.1013 40.1027 25.3002 40.4172 25.3002C41.1035 25.3002 41.8183 24.2203 42.1614 22.7142L42.3044 22.1175L42.5617 22.4016C44.02 24.0214 45.1637 26.2664 45.3352 27.8577L45.3924 28.284L45.1351 27.9145C44.7062 27.261 44.3059 26.8347 43.7626 26.4653C42.7905 25.8117 41.7611 25.6128 39.0447 25.4707C36.5857 25.3286 35.1847 25.1297 33.8122 24.675C31.4675 23.9077 30.2666 22.9132 27.4931 19.2474C26.2636 17.6276 25.4916 16.7467 24.7196 16.0078C23.0326 14.388 21.3456 13.5355 19.1439 13.1945Z" fill="white"/>
<path d="M40.4457 16.8033C40.5029 15.7234 40.6459 15.013 40.9604 14.3594C41.0748 14.1037 41.1892 13.8763 41.2178 13.8763C41.2464 13.8763 41.1892 14.0753 41.1034 14.3026C40.8746 14.9278 40.846 15.8087 40.989 16.8033C41.1892 18.0821 41.2749 18.2526 42.6474 19.645C43.2765 20.2986 44.0199 21.1227 44.3058 21.4637L44.7919 22.0889L44.3058 21.6342C43.7054 21.0659 42.3329 19.986 42.0184 19.8439C41.8182 19.7303 41.7896 19.7302 41.6467 19.8723C41.5323 19.986 41.5037 20.1565 41.5037 20.9806C41.4751 22.2594 41.3035 23.055 40.8746 23.8791C40.6459 24.3054 40.6173 24.2201 40.8175 23.7371C40.9604 23.3676 40.989 23.1971 40.989 21.9752C40.989 19.5029 40.7031 18.9062 38.9589 17.9116C38.53 17.6558 37.7866 17.2864 37.3577 17.0875C36.9002 16.8885 36.5571 16.718 36.5856 16.718C36.6428 16.6612 38.3298 17.1443 38.9875 17.4285C39.9882 17.8263 40.1598 17.8547 40.2742 17.8263C40.36 17.7411 40.4171 17.5137 40.4457 16.8033Z" fill="white"/>
<path d="M20.3164 21.0374C19.1155 19.3892 18.3434 16.8316 18.515 14.9277L18.5722 14.3309L18.8581 14.3878C19.3728 14.473 20.2592 14.814 20.6881 15.0698C21.8318 15.7518 22.3465 16.6895 22.8326 19.0197C22.9755 19.7018 23.1757 20.4974 23.2615 20.7532C23.4044 21.1794 23.9477 22.174 24.4052 22.7992C24.7197 23.2539 24.5196 23.4812 23.8047 23.4244C22.7182 23.3107 21.26 22.3161 20.3164 21.0374Z" fill="white"/>
<path d="M38.9877 33.399C33.3262 31.1256 31.3247 29.1648 31.3247 25.84C31.3247 25.3569 31.3533 24.9591 31.3533 24.9591C31.3819 24.9591 31.582 25.1296 31.8394 25.3285C32.9831 26.2379 34.2698 26.6357 37.844 27.1472C39.9313 27.4598 41.1322 27.6871 42.2187 28.0566C45.6785 29.1932 47.823 31.5234 48.3377 34.6777C48.4806 35.5871 48.3948 37.3205 48.1661 38.2298C47.9659 38.9403 47.3941 40.2475 47.2511 40.2759C47.2225 40.2759 47.1653 40.1338 47.1653 39.9065C47.1082 38.7129 46.5077 37.5763 45.5069 36.6953C44.306 35.6723 42.762 34.9051 38.9877 33.399Z" fill="white"/>
<path d="M34.9843 34.3368C34.9271 33.9106 34.7842 33.3706 34.6984 33.1433L34.5554 32.717L34.8128 33.0296C35.1845 33.4559 35.4704 33.9674 35.7277 34.6778C35.9279 35.2177 35.9279 35.3882 35.9279 36.2692C35.9279 37.1217 35.8993 37.3206 35.7277 37.8037C35.4418 38.5709 35.0987 39.1109 34.5268 39.7076C33.4975 40.7591 32.1536 41.3274 30.2379 41.5832C29.8947 41.6116 28.9226 41.6968 28.0648 41.7537C25.9203 41.8673 24.4906 42.0947 23.2039 42.5493C23.0324 42.6062 22.8608 42.663 22.8322 42.6346C22.775 42.5778 23.6614 42.0662 24.3763 41.7252C25.377 41.2422 26.4064 40.9864 28.6652 40.5886C29.7804 40.4181 30.9241 40.1907 31.21 40.0771C34.0407 39.1961 35.4418 37.008 34.9843 34.3368Z" fill="white"/>
<path d="M37.5867 38.9119C36.8432 37.2921 36.6717 35.7576 37.072 34.3083C37.1292 34.1663 37.1864 34.0242 37.2435 34.0242C37.3007 34.0242 37.4723 34.1094 37.6438 34.2231C37.987 34.4504 38.7018 34.8483 40.5318 35.8429C42.8478 37.0932 44.1631 38.0594 45.0781 39.1676C45.8787 40.1338 46.3648 41.2421 46.5935 42.6061C46.7365 43.3734 46.6507 45.2205 46.4505 45.9877C45.8215 48.4032 44.3918 50.3355 42.3045 51.4438C41.99 51.6143 41.7327 51.728 41.7041 51.728C41.6755 51.728 41.7899 51.4438 41.9614 51.1028C42.6477 49.6535 42.7334 48.2611 42.2188 46.6982C41.9042 45.732 41.2466 44.5669 39.9313 42.6061C38.3587 40.3327 37.987 39.736 37.5867 38.9119Z" fill="white"/>
<path d="M16.2845 47.6075C18.4004 45.8456 21.0024 44.5953 23.4042 44.1974C24.4336 44.0269 26.1492 44.0838 27.0928 44.3395C28.6082 44.7374 29.9807 45.5899 30.6955 46.6413C31.3817 47.6643 31.6963 48.5452 32.0108 50.506C32.1252 51.2733 32.2681 52.0689 32.2967 52.2395C32.5255 53.2625 32.983 54.0581 33.5548 54.4844C34.4412 55.138 35.9853 55.1664 37.5007 54.5981C37.758 54.5128 37.9868 54.4276 37.9868 54.456C38.044 54.5128 37.2719 55.0243 36.7573 55.2801C36.0424 55.6495 35.4706 55.7632 34.6986 55.7632C33.3261 55.7632 32.1538 55.0527 31.2102 53.6319C31.01 53.3477 30.6097 52.5236 30.2666 51.7564C29.2659 49.4546 28.7512 48.7726 27.5789 48.0053C26.5495 47.3517 25.2342 47.2096 24.2334 47.6927C22.9182 48.3179 22.575 49.9945 23.49 51.0175C23.8617 51.4438 24.548 51.7848 25.1198 51.87C26.1778 52.0121 27.0928 51.188 27.0928 50.1366C27.0928 49.4546 26.8354 49.0567 26.1492 48.7442C25.2342 48.3463 24.2334 48.801 24.262 49.6819C24.262 50.0513 24.4336 50.2787 24.8053 50.4492C25.0341 50.5628 25.0341 50.5628 24.8625 50.5344C24.0333 50.3639 23.8331 49.3409 24.4908 48.6873C25.2914 47.8916 26.9784 48.2327 27.5503 49.3409C27.779 49.7956 27.8076 50.7049 27.6074 51.2733C27.1214 52.5236 25.7489 53.1772 24.3478 52.8078C23.4042 52.552 23.0039 52.2963 21.8602 51.1312C19.8587 49.0852 19.0867 48.6873 16.2274 48.2611L15.6841 48.1758L16.2845 47.6075Z" fill="white"/>
<path fill-rule="evenodd" clip-rule="evenodd" d="M1.24492 1.88441C7.90714 9.92642 18.1721 22.4299 18.6868 23.1119C19.1157 23.6803 18.9441 24.2202 18.2293 24.618C17.829 24.8454 16.9998 25.0727 16.5995 25.0727C16.142 25.0727 15.5987 24.8454 15.227 24.4759C14.9697 24.2202 13.8545 22.6004 11.3383 18.7073C9.42258 15.7235 7.79277 13.2512 7.76417 13.2228C7.6498 13.166 7.6498 13.166 11.1382 19.3609C13.3398 23.254 14.0547 24.6464 14.0547 24.8169C14.0547 25.1864 13.9403 25.3853 13.4828 25.8968C12.7108 26.7493 12.3677 27.7155 12.1103 29.7331C11.8244 31.978 11.0524 33.5694 8.85071 36.269C7.56402 37.8604 7.36387 38.1445 7.04934 38.7981C6.64904 39.5938 6.53466 40.0485 6.47748 41.0715C6.42029 42.1513 6.53466 42.8333 6.84919 43.8563C7.13512 44.7657 7.44965 45.3624 8.22166 46.5275C8.87931 47.5506 9.27961 48.3178 9.27961 48.602C9.27961 48.8293 9.3368 48.8293 10.3662 48.602C12.8252 48.0336 14.8553 47.0675 15.9704 45.874C16.6567 45.1351 16.8282 44.7373 16.8282 43.7143C16.8282 43.0607 16.7996 42.9186 16.6281 42.5207C16.3421 41.8956 15.7989 41.3841 14.6265 40.5884C13.0825 39.537 12.4249 38.6844 12.2533 37.5478C12.1103 36.5816 12.2819 35.928 13.1397 34.1377C14.0261 32.2906 14.2548 31.5234 14.3978 29.6478C14.4836 28.4543 14.6265 27.9712 14.9697 27.6018C15.3414 27.204 15.6559 27.0619 16.5423 26.9482C18.0005 26.7493 18.9441 26.3799 19.6875 25.6695C20.3452 25.0727 20.6311 24.4759 20.6597 23.595L20.6883 22.9414L20.3166 22.5436C18.9727 21.0091 0.358536 0.662476 0.272756 0.662476C0.244163 0.662476 0.701654 1.2024 1.24492 1.88441ZM10.023 42.2934C10.3376 41.7535 10.166 41.0715 9.65132 40.7305C9.16524 40.4179 8.42181 40.56 8.42181 40.9862C8.42181 41.0999 8.479 41.2136 8.65056 41.2704C8.9079 41.4125 8.93649 41.5546 8.73634 41.8672C8.53619 42.1797 8.53619 42.4639 8.79353 42.6628C9.19383 42.9754 9.7371 42.8049 10.023 42.2934Z" fill="white"/>
<path fill-rule="evenodd" clip-rule="evenodd" d="M21.6028 27.3458C20.9166 27.5448 20.2589 28.2836 20.0588 29.0224C19.9444 29.4771 20.0016 30.3012 20.2017 30.5569C20.5163 30.9548 20.8022 31.0685 21.6028 31.0685C23.1754 31.0685 24.5193 30.3864 24.6623 29.5624C24.8052 28.8803 24.2048 27.9426 23.3756 27.5163C22.9467 27.289 22.0603 27.2037 21.6028 27.3458ZM23.4328 28.7667C23.6615 28.4257 23.5757 28.0563 23.1468 27.8005C22.3748 27.3174 21.2025 27.7153 21.2025 28.4541C21.2025 28.8235 21.803 29.2214 22.3748 29.2214C22.7465 29.2214 23.2612 28.994 23.4328 28.7667Z" fill="white"/>
</g>
<defs>
<clipPath id="clip0">
<rect width="48.1223" height="55.0722" fill="white" transform="translate(0.272461 0.662476)"/>
</clipPath>
</defs>
</svg>
