<svg width="74" height="74" viewBox="0 0 74 74" fill="none" xmlns="http://www.w3.org/2000/svg">
<path d="M11.5625 18.5V55.5C11.5625 56.7266 12.0498 57.903 12.9171 58.7704C13.7845 59.6377 14.9609 60.125 16.1875 60.125H62.4375C63.0508 60.125 63.639 59.8814 64.0727 59.4477C64.5064 59.014 64.75 58.4258 64.75 57.8125V25.4375C64.75 24.8242 64.5064 24.236 64.0727 23.8023C63.639 23.3686 63.0508 23.125 62.4375 23.125H16.1875C14.9609 23.125 13.7845 22.6377 12.9171 21.7704C12.0498 20.903 11.5625 19.7266 11.5625 18.5ZM11.5625 18.5C11.5625 17.2734 12.0498 16.097 12.9171 15.2296C13.7845 14.3623 14.9609 13.875 16.1875 13.875H55.5" stroke="#4DB64B" stroke-width="4" stroke-linecap="round" stroke-linejoin="round"/>
<path d="M52.0312 45.0938C53.947 45.0938 55.5 43.5407 55.5 41.625C55.5 39.7093 53.947 38.1562 52.0312 38.1562C50.1155 38.1562 48.5625 39.7093 48.5625 41.625C48.5625 43.5407 50.1155 45.0938 52.0312 45.0938Z" stroke="#4DB64B" stroke-width="4" stroke-linecap="round" stroke-linejoin="round"/>
</svg>
