<svg width="168" height="85" viewBox="0 0 168 85" fill="none" xmlns="http://www.w3.org/2000/svg">
<rect x="0.5" y="0.5" width="167" height="84" rx="14" fill="#FFFCFC"/>
<path d="M31.5 24.3853C34.0304 24.3853 36.5365 24.3613 39.0669 24.4606C41.0473 29.5116 44.5315 34.0185 45.4086 39.4665C46.3623 34.0459 49.6201 29.3884 51.7746 24.3853C53.9779 24.3853 56.1846 24.3853 58.3878 24.3613C55.3284 30.2508 52.2202 36.0889 49.0876 41.9304C48.663 42.7928 48.1374 43.6415 48.1861 44.6681C48.1374 48.2408 48.2105 51.8135 48.1861 55.4101H42.001C41.9001 51.615 42.1751 47.8199 41.8757 44.0521C38.6179 37.4201 34.9841 30.9147 31.5 24.3853ZM67.5105 33.033C71.2975 32.2698 75.7561 32.9098 78.3387 35.9657C80.9214 39.0216 81.2451 43.1863 80.8204 46.9541C80.4724 50.4036 78.384 53.8291 75.0043 55.1364C70.7684 56.7619 65.2307 56.1938 62.2235 52.5732C59.4912 49.0245 59.2928 44.148 60.3196 39.9833C61.1201 36.5577 63.9777 33.6763 67.5105 33.033ZM68.8645 37.865C66.5603 38.5494 66.0069 41.1639 65.8572 43.2103C65.7319 45.551 65.8816 48.2613 67.5975 50.034C69.4771 52.0051 73.2362 51.242 74.1898 48.7302C75.226 45.9086 75.2075 42.8166 74.1376 40.0072C73.4276 37.9608 70.845 37.0266 68.8645 37.865Z" fill="black"/>
<path d="M85.1293 24.6314C89.5149 24.1386 93.9771 23.769 98.4114 24.2892C100.691 24.5869 103.096 25.3158 104.677 27.1227C106.58 29.176 106.633 32.2969 105.721 34.8122C104.969 36.8826 102.915 37.964 101.161 39.0727C102.94 39.7571 104.945 40.4416 106.034 42.1526C108.617 46.0949 107.078 52.0357 102.727 54.0547C97.2871 56.7171 90.9733 55.7658 85.1572 55.2388C85.004 45.034 85.1293 34.8327 85.1293 24.6314ZM91.2204 29.2889C91.0673 31.9992 91.0673 34.7335 91.1438 37.4438C93.6986 37.3959 96.6328 37.6423 98.662 35.7704C100.642 34.3639 100.465 30.8665 98.1364 29.9049C95.9819 28.8954 93.5246 29.33 91.2204 29.2889ZM91.1195 42.2484C91.0963 44.9861 91.0963 47.7238 91.1195 50.4615C93.8761 50.5847 97.0365 51.0775 99.3894 49.3288C101.419 47.8983 101.419 44.3736 99.1632 43.169C96.7059 41.8549 93.7996 42.334 91.1195 42.2484ZM113.096 24.409C115.226 23.3823 118.609 24.3132 118.884 26.9242C118.961 30.3463 113.573 31.3353 111.819 28.6729C110.816 27.2767 111.519 25.1002 113.096 24.409ZM124.3 29.1999C126.277 28.6832 128.233 28.1425 130.217 27.5984C130.217 29.5216 130.242 31.4175 130.242 33.3167C132.072 33.3167 133.924 33.3407 135.755 33.4125C135.731 34.9901 135.706 36.5677 135.678 38.1214C133.875 38.1453 132.045 38.1453 130.242 38.1453C130.367 41.9404 129.894 45.7595 130.517 49.5273C131.213 51.6455 133.9 50.441 135.456 50.2425C135.804 51.7208 136.152 53.1992 136.5 54.6536C133.594 55.6631 130.311 56.6247 127.304 55.4407C125.216 54.6775 124.446 52.3847 124.346 50.4136C124.071 46.3481 124.297 42.2587 124.245 38.1693C123.218 38.1693 122.24 38.1693 121.213 38.1932C121.136 36.5677 121.136 34.9662 121.136 33.3407C122.181 33.3167 123.193 33.3167 124.22 33.2894C124.248 31.9239 124.248 30.5448 124.307 29.1897L124.3 29.1999ZM112.118 33.3407C114.123 33.3167 116.103 33.3167 118.108 33.3407V55.4064H112.125L112.118 33.3407Z" fill="#00A9D2"/>
</svg>
