<svg width="38" height="44" viewBox="0 0 38 44" fill="none" xmlns="http://www.w3.org/2000/svg">
<path d="M19.0004 7.625C20.0589 7.625 20.917 8.48313 20.917 9.54167V20.8934L29.918 26.0901C30.8347 26.6194 31.1488 27.7916 30.6195 28.7083C30.0903 29.6251 28.918 29.9392 28.0013 29.4099L19.0004 24.2132L9.99941 29.4099C9.08268 29.9392 7.91047 29.6251 7.38119 28.7083C6.85192 27.7916 7.16602 26.6194 8.08274 26.0901L17.0837 20.8934V9.54167C17.0837 8.48313 17.9418 7.625 19.0004 7.625Z" fill="#4195F0"/>
<path d="M11.8666 15.8734C12.7833 15.3442 13.0974 14.1719 12.5682 13.2552C12.0389 12.3385 10.8667 12.0244 9.94995 12.5537L7.25263 14.111C6.65961 14.4533 6.29429 15.0861 6.29429 15.7708V18.8854C6.29429 19.944 7.15241 20.8021 8.21096 20.8021C9.2695 20.8021 10.1276 19.944 10.1276 18.8854V16.8774L11.8666 15.8734Z" fill="#4195F0"/>
<path d="M28.0505 12.5537C27.1337 12.0244 25.9615 12.3385 25.4323 13.2552C24.903 14.1719 25.2171 15.3442 26.1338 15.8734L27.8728 16.8774V18.8854C27.8728 19.944 28.7309 20.8021 29.7895 20.8021C30.848 20.8021 31.7061 19.944 31.7061 18.8854V15.7708C31.7061 15.0861 31.3408 14.4533 30.7478 14.111L28.0505 12.5537Z" fill="#4195F0"/>
<path d="M17.2612 31.2412C16.3444 30.7119 15.1722 31.026 14.643 31.9427C14.1137 32.8594 14.4278 34.0317 15.3445 34.5609L18.0418 36.1182C18.6348 36.4606 19.3655 36.4606 19.9585 36.1182L22.6558 34.5609C23.5725 34.0317 23.8866 32.8594 23.3574 31.9427C22.8281 31.026 21.6559 30.7119 20.7392 31.2412L19.0002 32.2452L17.2612 31.2412Z" fill="#4195F0"/>
<path fill-rule="evenodd" clip-rule="evenodd" d="M18.042 1.17345C18.635 0.831078 19.3657 0.831078 19.9587 1.17345L28.2581 5.96512L36.5575 10.7568C37.1505 11.0992 37.5158 11.7319 37.5158 12.4167V31.5833C37.5158 32.2681 37.1505 32.9008 36.5575 33.2432L19.9587 42.8265C19.3657 43.1689 18.635 43.1689 18.042 42.8265L1.44319 33.2432C0.850176 32.9008 0.484863 32.2681 0.484863 31.5833V12.4167C0.484863 11.7319 0.850176 11.0992 1.44319 10.7568L18.042 1.17345ZM19.0004 5.04651L4.3182 13.5233V30.4768L19.0004 38.9535L33.6825 30.4768V13.5233L19.0004 5.04651Z" fill="#4195F0"/>
</svg>
