<svg width="25" height="24" viewBox="0 0 25 24" fill="none" xmlns="http://www.w3.org/2000/svg">
<path d="M5.60571 18.8943C4.74283 18.0314 5.31514 16.2198 4.87595 15.1584C4.42066 14.058 2.75 13.1723 2.75 12C2.75 10.8276 4.42067 9.942 4.87595 8.84164C5.31515 7.78015 4.74283 5.96858 5.60571 5.10571C6.46858 4.24283 8.28016 4.81514 9.34165 4.37595C10.442 3.92066 11.3277 2.25 12.5 2.25C13.6724 2.25 14.558 3.92067 15.6584 4.37595C16.7199 4.81515 18.5314 4.24283 19.3943 5.10571C20.2572 5.96858 19.6849 7.78016 20.1241 8.84165C20.5793 9.94203 22.25 10.8277 22.25 12C22.25 13.1724 20.5793 14.058 20.124 15.1584C19.6848 16.2199 20.2572 18.0314 19.3943 18.8943C18.5314 19.7572 16.7198 19.1849 15.6584 19.6241C14.558 20.0793 13.6723 21.75 12.5 21.75C11.3276 21.75 10.442 20.0793 9.34164 19.624C8.28015 19.1848 6.46858 19.7572 5.60571 18.8943Z" stroke="#4195F0" stroke-width="2" stroke-linecap="round" stroke-linejoin="round"/>
<path d="M16.625 9.75L11.125 15L8.375 12.375" stroke="#4195F0" stroke-width="2" stroke-linecap="round" stroke-linejoin="round"/>
</svg>
