<svg width="29" height="28" viewBox="0 0 29 28" fill="none" xmlns="http://www.w3.org/2000/svg">
<path d="M13.0858 0.585786C13.8668 -0.195262 15.1332 -0.195262 15.9142 0.585787L27.9142 12.5858C28.6953 13.3668 28.6953 14.6332 27.9142 15.4142L15.9142 27.4142C15.1332 28.1953 13.8668 28.1953 13.0858 27.4142C12.3047 26.6332 12.3047 25.3668 13.0858 24.5858L23.6716 14L13.0858 3.41421C12.3047 2.63316 12.3047 1.36683 13.0858 0.585786ZM1.08579 0.585786C1.86684 -0.195262 3.13317 -0.195262 3.91422 0.585787L15.9142 12.5858C16.2893 12.9609 16.5 13.4696 16.5 14C16.5 14.5304 16.2893 15.0391 15.9142 15.4142L3.91421 27.4142C3.13317 28.1953 1.86683 28.1953 1.08579 27.4142C0.304738 26.6332 0.304738 25.3668 1.08579 24.5858L11.6716 14L1.08579 3.41421C0.30474 2.63316 0.30474 1.36683 1.08579 0.585786Z" fill="#4195F0"/>
</svg>
