<svg width="33" height="32" viewBox="0 0 33 32" fill="none" xmlns="http://www.w3.org/2000/svg">
<path d="M7.52523 14.0002C7.52193 12.8195 7.75164 11.6497 8.20121 10.5579C8.65077 9.46608 9.31135 8.47371 10.1451 7.63763C10.9788 6.80155 11.9694 6.1382 13.0599 5.68559C14.1505 5.23298 15.3196 5 16.5003 5C17.6811 5 18.8502 5.23298 19.9408 5.68559C21.0313 6.1382 22.0218 6.80155 22.8556 7.63763C23.6893 8.47371 24.3499 9.46608 24.7995 10.5579C25.249 11.6497 25.4788 12.8195 25.4755 14.0002V14.0002C25.4755 18.4772 26.4121 21.0751 27.2371 22.495C27.326 22.6467 27.3732 22.8192 27.3742 22.995C27.3751 23.1708 27.3297 23.3438 27.2424 23.4965C27.1552 23.6491 27.0292 23.7761 26.8773 23.8645C26.7253 23.953 26.5527 23.9998 26.3769 24.0002H6.6228C6.44695 23.9998 6.27433 23.9529 6.12235 23.8645C5.97038 23.776 5.84442 23.649 5.75719 23.4963C5.66995 23.3437 5.62453 23.1707 5.6255 22.9948C5.62647 22.819 5.6738 22.6465 5.76272 22.4948C6.58813 21.0748 7.52522 18.4769 7.52522 14.0002H7.52523Z" stroke="white" stroke-width="2" stroke-linecap="round" stroke-linejoin="round"/>
<path d="M12.5 24V25C12.5 26.0609 12.9214 27.0783 13.6716 27.8284C14.4217 28.5786 15.4391 29 16.5 29C17.5609 29 18.5783 28.5786 19.3284 27.8284C20.0786 27.0783 20.5 26.0609 20.5 25V24" stroke="white" stroke-width="2" stroke-linecap="round" stroke-linejoin="round"/>
<path d="M23.4292 2.99854C25.464 4.28311 27.1043 6.10497 28.169 8.26299" stroke="white" stroke-width="2" stroke-linecap="round" stroke-linejoin="round"/>
<path d="M4.83105 8.26299C5.89575 6.10497 7.53604 4.28311 9.57087 2.99854" stroke="white" stroke-width="2" stroke-linecap="round" stroke-linejoin="round"/>
</svg>
