<svg width="41" height="41" viewBox="0 0 41 41" fill="none" xmlns="http://www.w3.org/2000/svg">
<path d="M20.5 35.5C28.7843 35.5 35.5 28.7843 35.5 20.5C35.5 12.2157 28.7843 5.5 20.5 5.5C12.2157 5.5 5.5 12.2157 5.5 20.5C5.5 28.7843 12.2157 35.5 20.5 35.5Z" stroke="white" stroke-width="3" stroke-linecap="round" stroke-linejoin="round"/>
<path d="M20.5 30.5C21.5355 30.5 22.375 29.6605 22.375 28.625C22.375 27.5895 21.5355 26.75 20.5 26.75C19.4645 26.75 18.625 27.5895 18.625 28.625C18.625 29.6605 19.4645 30.5 20.5 30.5Z" fill="white"/>
<path d="M20.5 23.001V21.751C21.3653 21.751 22.2112 21.4944 22.9306 21.0137C23.6501 20.5329 24.2108 19.8496 24.542 19.0502C24.8731 18.2508 24.9597 17.3711 24.7909 16.5225C24.6221 15.6738 24.2054 14.8942 23.5936 14.2824C22.9817 13.6705 22.2022 13.2539 21.3535 13.085C20.5049 12.9162 19.6252 13.0029 18.8258 13.334C18.0263 13.6651 17.3431 14.2259 16.8623 14.9454C16.3816 15.6648 16.125 16.5107 16.125 17.376" stroke="white" stroke-width="3" stroke-linecap="round" stroke-linejoin="round"/>
</svg>
