<svg width="73" height="72" viewBox="0 0 73 72" fill="none" xmlns="http://www.w3.org/2000/svg">
<rect x="0.5" width="72" height="72" rx="36" fill="#243255"/>
<path d="M32.125 39.5H17.25C16.7859 39.5 16.3408 39.3156 16.0126 38.9874C15.6844 38.6592 15.5 38.2141 15.5 37.75V23.75C15.5 23.2859 15.6844 22.8408 16.0126 22.5126C16.3408 22.1844 16.7859 22 17.25 22H30.375C30.8391 22 31.2842 22.1844 31.6124 22.5126C31.9406 22.8408 32.125 23.2859 32.125 23.75V43C32.125 45.3206 31.2031 47.5462 29.5622 49.1872C27.9212 50.8281 25.6956 51.75 23.375 51.75" stroke="white" stroke-width="4" stroke-linecap="round" stroke-linejoin="round"/>
<rect x="16.5" y="22" width="16" height="16" fill="white"/>
<path d="M57.5 39.5H42.625C42.1609 39.5 41.7158 39.3156 41.3876 38.9874C41.0594 38.6592 40.875 38.2141 40.875 37.75V23.75C40.875 23.2859 41.0594 22.8408 41.3876 22.5126C41.7158 22.1844 42.1609 22 42.625 22H55.75C56.2141 22 56.6592 22.1844 56.9874 22.5126C57.3156 22.8408 57.5 23.2859 57.5 23.75V43C57.5 45.3206 56.5781 47.5462 54.9372 49.1872C53.2962 50.8281 51.0706 51.75 48.75 51.75" stroke="white" stroke-width="4" stroke-linecap="round" stroke-linejoin="round"/>
<rect x="40.5" y="22" width="16" height="16" fill="white"/>
</svg>
