<svg width="16" height="16" viewBox="0 0 16 16" fill="none" xmlns="http://www.w3.org/2000/svg">
<path d="M8 2C4.68629 2 2 4.68629 2 8C2 11.3137 4.68629 14 8 14C11.3137 14 14 11.3137 14 8C14 4.68629 11.3137 2 8 2ZM0.5 8C0.5 3.85786 3.85786 0.5 8 0.5C12.1421 0.5 15.5 3.85786 15.5 8C15.5 12.1421 12.1421 15.5 8 15.5C3.85786 15.5 0.5 12.1421 0.5 8Z" fill="#4195F0"/>
<path d="M8 9.5C7.58579 9.5 7.25 9.16421 7.25 8.75L7.25 4.25C7.25 3.83579 7.58579 3.5 8 3.5C8.41421 3.5 8.75 3.83579 8.75 4.25L8.75 8.75C8.75 9.16421 8.41421 9.5 8 9.5Z" fill="#4195F0"/>
<path d="M6.875 11.375C6.875 10.7537 7.37868 10.25 8 10.25C8.62132 10.25 9.125 10.7537 9.125 11.375C9.125 11.9963 8.62132 12.5 8 12.5C7.37868 12.5 6.875 11.9963 6.875 11.375Z" fill="#4195F0"/>
</svg>
